<svg fill="none"
    xmlns="http://www.w3.org/2000/svg" viewBox="0 0 90 90">
    <path d="M81.14 21.586L47.18 2.039c-.563-.352-1.336-.492-2.18-.492-.844 0-1.617.21-2.18.492L9.07 21.656c-1.195.703-2.039 2.461-2.039 3.797v39.164c0 .774.14 1.688.703 2.461l75.094-43.594a4.98 4.98 0 00-1.687-1.898z" fill="#D26383"/>
    <path d="M7.523 67.008c.352.562.844 1.055 1.336 1.336L42.75 87.96c.563.352 1.336.492 2.18.492.843 0 1.617-.21 2.18-.492l33.75-19.617c1.195-.703 2.038-2.461 2.038-3.797V25.383c0-.633-.07-1.336-.421-1.969L7.523 67.008z" fill="#9C033A"/>
    <path d="M59.977 53.508C57.023 58.71 51.398 62.227 45 62.227c-9.492 0-17.227-7.735-17.227-17.227S35.508 27.773 45 27.773c6.398 0 12.023 3.516 14.977 8.79l9.14-5.274C64.336 22.922 55.336 17.227 45 17.227c-15.328 0-27.773 12.445-27.773 27.773S29.672 72.773 45 72.773c10.266 0 19.266-5.625 24.047-13.921l-9.07-5.344z" fill="#fff"/>
    <path d="M57.727 43.453h3.656v-3.726h3.094v3.726h3.726v3.094h-3.726v3.656h-3.094v-3.656h-3.656v-3.094zm13.007 0h3.657v-3.726h3.093v3.726h3.727v3.094h-3.727v3.656h-3.093v-3.656h-3.657v-3.094z" fill="#fff"/>
</svg>