<svg fill="none"
    xmlns="http://www.w3.org/2000/svg" viewBox="0 0 65 90">
    <g clip-path="url(#clip0)">
        <path d="M32.706 89.773l-25.973-7.21-5.789-64.92h63.601l-5.794 64.91-26.045 7.22z" fill="#264DE4"/>
        <path d="M53.79 78.42l4.952-55.47H32.745v61.304l21.046-5.835z" fill="#2965F1"/>
        <path d="M14.214 47.028l.713 7.962h17.818v-7.962H14.214zM12.78 30.913l.724 7.962h19.242v-7.962H12.78zM32.745 67.707l-.035.01-8.867-2.395-.567-6.35h-7.993L16.4 71.473l16.31 4.528.036-.01v-8.284z" fill="#EBEBEB"/>
        <path d="M15.913 0h9.643v4.033h-5.61v4.033h5.61v4.032h-9.643V0zM27.485 0h9.643v3.507h-5.61v.701h5.61v8.066h-9.643V8.59h5.61V7.89h-5.61V0zM39.058 0H48.7v3.507h-5.61v.701h5.61v8.066h-9.643V8.59h5.61V7.89h-5.61V0z" fill="#000"/>
        <path d="M51.226 47.029l1.437-16.116H32.718v7.962h11.22l-.725 8.154H32.718v7.962h9.804l-.924 10.326-8.88 2.397v8.283l16.323-4.523.12-1.346 1.87-20.961.195-2.138z" fill="#fff"/>
    </g>
    <defs>
        <clipPath id="clip0">
            <path fill="#fff" transform="translate(.83)" d="M0 0h63.83v90H0z"/>
        </clipPath>
    </defs>
</svg>