<svg fill="none"
    xmlns="http://www.w3.org/2000/svg" viewBox="0 0 155 46">
    <g clip-path="url(#clip0)">
        <path d="M1.006 35.422v-17.21h21.487v-1.006H1.006v-15.7h22.845V.5H0v35.928h24.052v-1.006H1.007zm42.42-24.858l-8.907 11.724-8.705-11.724h-1.309l9.41 12.48L23.6 36.427h1.208l9.712-12.63 9.762 12.63h1.258L35.172 23.043l9.46-12.48h-1.208zm5.132 34.72V29.182h.1c.605 2.348 1.795 4.235 3.573 5.661 1.778 1.426 4.043 2.139 6.793 2.139 1.778 0 3.355-.36 4.73-1.082a10.061 10.061 0 003.447-2.944c.923-1.241 1.627-2.684 2.114-4.327.486-1.644.73-3.372.73-5.183 0-1.946-.252-3.74-.756-5.384-.503-1.644-1.232-3.07-2.188-4.277a10.06 10.06 0 00-3.472-2.818c-1.359-.671-2.894-1.007-4.605-1.007-1.308 0-2.524.193-3.648.579a9.766 9.766 0 00-2.994 1.635c-.877.71-1.64 1.55-2.264 2.491a11.471 11.471 0 00-1.46 3.145h-.1v-7.246h-1.006v34.72h1.006zm10.466-9.259c-3.153 0-5.686-1.082-7.598-3.245-1.912-2.164-2.868-5.276-2.868-9.335 0-1.677.235-3.27.705-4.78.47-1.51 1.148-2.834 2.037-3.975a9.787 9.787 0 013.296-2.717c1.309-.671 2.785-1.007 4.428-1.007 1.678 0 3.145.336 4.403 1.007a8.925 8.925 0 013.12 2.742c.822 1.158 1.443 2.483 1.862 3.975.42 1.493.629 3.078.629 4.755 0 1.51-.193 3.011-.579 4.504-.386 1.493-.981 2.835-1.786 4.026a9.723 9.723 0 01-3.095 2.918c-1.258.755-2.776 1.132-4.554 1.132zm16.555.403V21.785c0-1.409.202-2.785.605-4.126.402-1.342 1.022-2.525 1.861-3.548.839-1.023 1.904-1.828 3.195-2.415 1.292-.587 2.827-.83 4.605-.73V9.96c-1.544-.033-2.894.134-4.051.503-1.158.37-2.156.872-2.994 1.51a7.711 7.711 0 00-2.013 2.239 10.012 10.012 0 00-1.107 2.742h-.1v-6.39h-1.007v25.864h1.007zm11.524-12.731h21.637a17.904 17.904 0 00-.529-5.132c-.419-1.644-1.09-3.104-2.012-4.378-.923-1.275-2.114-2.298-3.573-3.07-1.459-.771-3.195-1.157-5.208-1.157-1.443 0-2.852.302-4.227.906a10.51 10.51 0 00-3.623 2.641c-1.04 1.158-1.878 2.575-2.516 4.253-.637 1.677-.956 3.589-.956 5.736 0 1.912.218 3.698.654 5.359.436 1.66 1.107 3.103 2.013 4.327.906 1.225 2.072 2.172 3.497 2.843 1.426.671 3.145.99 5.158.956 2.952 0 5.434-.83 7.447-2.49 2.013-1.661 3.204-4 3.573-7.02h-1.006c-.436 2.852-1.552 4.99-3.347 6.416-1.795 1.425-4.05 2.138-6.768 2.138-1.845 0-3.405-.318-4.68-.956-1.274-.637-2.314-1.51-3.12-2.616-.804-1.108-1.4-2.407-1.785-3.9-.386-1.493-.596-3.111-.63-4.856zm20.63-1.006h-20.63c.1-1.812.436-3.439 1.006-4.881.57-1.443 1.317-2.676 2.24-3.699a9.36 9.36 0 013.22-2.34c1.224-.536 2.54-.805 3.95-.805 1.677 0 3.153.31 4.428.931a9.155 9.155 0 013.195 2.541c.855 1.074 1.501 2.324 1.937 3.75.436 1.425.654 2.926.654 4.503zm21.889-4.479h1.007c0-2.885-.839-4.981-2.516-6.29-1.678-1.308-3.959-1.962-6.844-1.962-1.61 0-2.969.201-4.076.604-1.107.402-2.012.922-2.717 1.56-.704.637-1.207 1.341-1.509 2.113-.302.772-.453 1.51-.453 2.214 0 1.409.251 2.533.755 3.372.503.838 1.291 1.492 2.364 1.962.739.335 1.577.637 2.516.906.94.268 2.03.553 3.271.855 1.107.269 2.197.537 3.271.805 1.073.269 2.021.63 2.843 1.082a6.146 6.146 0 012.013 1.736c.52.705.78 1.627.78 2.768 0 1.107-.26 2.046-.78 2.817a6.283 6.283 0 01-1.988 1.888 8.843 8.843 0 01-2.692 1.056c-.99.218-1.954.327-2.893.327-3.053 0-5.393-.679-7.02-2.038-1.627-1.358-2.44-3.497-2.44-6.415h-1.007c0 3.254.881 5.635 2.642 7.145 1.761 1.51 4.37 2.264 7.825 2.264 1.107 0 2.222-.126 3.346-.377 1.124-.252 2.13-.662 3.019-1.233a6.827 6.827 0 002.164-2.214c.553-.906.83-2.013.83-3.32 0-1.242-.243-2.248-.729-3.02a6.124 6.124 0 00-1.913-1.912 10.134 10.134 0 00-2.667-1.183c-.995-.286-1.993-.563-2.994-.83a508.618 508.618 0 00-3.698-.956 22.45 22.45 0 01-2.944-.956c-.872-.37-1.568-.897-2.088-1.585s-.78-1.67-.78-2.944c0-.235.067-.654.201-1.258s.453-1.216.957-1.837c.503-.62 1.274-1.174 2.314-1.66s2.466-.73 4.277-.73c1.242 0 2.373.135 3.397.403 1.023.268 1.904.696 2.641 1.283a5.825 5.825 0 011.711 2.24c.403.905.604 2.012.604 3.32zm23.298 0h1.006c0-2.885-.838-4.981-2.515-6.29-1.678-1.308-3.959-1.962-6.844-1.962-1.61 0-2.969.201-4.076.604-1.107.402-2.013.922-2.717 1.56-.705.637-1.208 1.341-1.51 2.113-.302.772-.452 1.51-.452 2.214 0 1.409.251 2.533.755 3.372.502.838 1.291 1.492 2.364 1.962a18.24 18.24 0 002.516.906c.939.268 2.03.553 3.271.855 1.107.269 2.197.537 3.271.805 1.073.269 2.021.63 2.843 1.082a6.132 6.132 0 012.012 1.736c.521.705.781 1.627.781 2.768 0 1.107-.26 2.046-.781 2.817a6.281 6.281 0 01-1.987 1.888 8.854 8.854 0 01-2.692 1.056c-.99.218-1.954.327-2.894.327-3.052 0-5.392-.679-7.019-2.038-1.627-1.358-2.44-3.497-2.44-6.415h-1.007c0 3.254.881 5.635 2.642 7.145 1.761 1.51 4.369 2.264 7.824 2.264a15.28 15.28 0 003.347-.377c1.123-.252 2.13-.662 3.019-1.233a6.827 6.827 0 002.164-2.214c.553-.906.83-2.013.83-3.32 0-1.242-.243-2.248-.73-3.02a6.11 6.11 0 00-1.912-1.912 10.134 10.134 0 00-2.667-1.183c-.995-.286-1.993-.563-2.994-.83a508.618 508.618 0 00-3.698-.956 22.45 22.45 0 01-2.944-.956c-.872-.37-1.568-.897-2.088-1.585s-.78-1.67-.78-2.944c0-.235.067-.654.201-1.258s.453-1.216.956-1.837c.503-.62 1.275-1.174 2.315-1.66s2.465-.73 4.277-.73c1.241 0 2.373.135 3.397.403 1.023.268 1.903.696 2.641 1.283a5.835 5.835 0 011.711 2.24c.403.905.604 2.012.604 3.32z" fill="#222"/>
    </g>
    <defs>
        <clipPath id="clip0">
            <path fill="#fff" transform="translate(0 .5)" d="M0 0h154.631v45H0z"/>
        </clipPath>
    </defs>
</svg>