<svg fill="none"
    xmlns="http://www.w3.org/2000/svg" viewBox="0 0 91 90">
    <path d="M60.55 60c8.284 0 15-6.716 15-15 0-8.284-6.716-15-15-15-8.284 0-15 6.716-15 15 0 8.284 6.716 15 15 15z" fill="#19BCFE"/>
    <path fill-rule="evenodd" clip-rule="evenodd" d="M30.55 90a15 15 0 0015-15V60h-15a15 15 0 000 30z" fill="#09CF83"/>
    <path fill-rule="evenodd" clip-rule="evenodd" d="M30.55 60h15V30h-15a15 15 0 000 30z" fill="#A259FF"/>
    <path fill-rule="evenodd" clip-rule="evenodd" d="M30.55 30h15V0h-15a15 15 0 100 30z" fill="#F24E1E"/>
    <path fill-rule="evenodd" clip-rule="evenodd" d="M60.55 30h-15V0h15a15 15 0 110 30z" fill="#FF7262"/>
</svg>