<svg fill="none"
    xmlns="http://www.w3.org/2000/svg" viewBox="0 0 90 90">
    <path d="M45 0C20.147 0 0 20.147 0 45s20.147 45 45 45 45-20.147 45-45S69.853 0 45 0zM9.67 45.469l34.86 34.862C25.389 80.08 9.92 64.612 9.67 45.469zm43.239 33.979L10.553 37.09C14.145 21.383 28.203 9.663 45 9.663c11.741 0 22.143 5.728 28.569 14.541l-4.893 4.317C63.464 21.046 54.804 16.154 45 16.154c-12.482 0-23.112 7.928-27.13 19.024L54.823 72.13c8.973-3.25 15.875-10.825 18.186-20.207H57.693V45h22.644c0 16.797-11.72 30.856-27.428 34.447z" fill="#744C9E"/>
</svg>