<svg fill="none"
    xmlns="http://www.w3.org/2000/svg" viewBox="0 0 90 90">
    <g clip-path="url(#clip0)">
        <path d="M88.303 40.99L49.008 1.698a5.796 5.796 0 00-8.197 0l-8.16 8.16 10.352 10.35a6.88 6.88 0 017.08 1.65 6.89 6.89 0 011.636 7.125l9.976 9.976a6.886 6.886 0 017.126 1.637 6.894 6.894 0 010 9.753 6.896 6.896 0 01-11.257-7.501l-9.303-9.303-.001 24.481c.674.334 1.29.774 1.824 1.305a6.897 6.897 0 010 9.755 6.895 6.895 0 01-9.752 0 6.897 6.897 0 012.257-11.26v-24.71a6.812 6.812 0 01-2.257-1.505 6.894 6.894 0 01-1.486-7.54L28.642 13.867 1.698 40.809a5.798 5.798 0 000 8.199L40.994 88.3a5.796 5.796 0 008.197 0l39.111-39.11a5.8 5.8 0 000-8.2" fill="#DE4C36"/>
    </g>
    <defs>
        <clipPath id="clip0">
            <path fill="#fff" d="M0 0h90v90H0z"/>
        </clipPath>
    </defs>
</svg>