<svg fill="none"
    xmlns="http://www.w3.org/2000/svg" viewBox="0 0 64 90">
    <g clip-path="url(#clip0)">
        <path d="M63.715 17.643l-5.794 64.91-26.045 7.22-25.974-7.21-5.788-64.92h63.601z" fill="#E44D26"/>
        <path d="M31.915 84.254l21.046-5.835 4.951-55.468H31.915v61.303z" fill="#F16529"/>
        <path d="M20.652 38.875h11.264v-7.962H11.95l.19 2.136 1.958 21.942h17.818v-7.962H21.379l-.727-8.154zM22.446 58.972h-7.993l1.116 12.501 16.31 4.528.036-.01v-8.284l-.035.01-8.867-2.395-.567-6.35z" fill="#EBEBEB"/>
        <path d="M6.032 0h4.046v3.998h3.702V0h4.046v12.106H13.78V8.052H10.08v4.054H6.032V0zM23.147 4.015h-3.562V0h11.172v4.015h-3.563v8.09h-4.047v-8.09zM32.531 0h4.22l2.595 4.254L41.938 0h4.221v12.106h-4.03v-6l-2.783 4.304h-.07L36.49 6.106v6h-3.959V0zM48.172 0h4.048v8.104h5.69v4.002h-9.738V0z" fill="#000"/>
        <path d="M31.888 54.99h9.805l-.925 10.327-8.88 2.397v8.283l16.323-4.524.12-1.345 1.87-20.962.195-2.138H31.888v7.962zM31.888 38.856v.02H51.12l.16-1.79.363-4.037.19-2.136H31.888v7.943z" fill="#fff"/>
    </g>
    <defs>
        <clipPath id="clip0">
            <path fill="#fff" d="M0 0h63.83v90H0z"/>
        </clipPath>
    </defs>
</svg>