<svg fill="none"
    xmlns="http://www.w3.org/2000/svg" viewBox="0 0 212 60">
    <g clip-path="url(#clip0)" fill-rule="evenodd" clip-rule="evenodd">
        <path d="M196.744 24.848c-.189.038-.379.455-.379.682a458.026 458.026 0 00-.076 8.268c0 .076.114.227.227.227a60.1 60.1 0 003.11.076c1.631 0 2.579-.227 3.11-.455 1.365-.683 2.01-2.162 2.01-3.793 0-3.678-2.579-5.081-6.409-5.081-.266-.038-1.024-.038-1.593.076zm9.785 16.952c0-3.755-2.769-5.84-7.775-5.84-.228 0-1.82-.039-2.2.037-.114.038-.265.114-.265.228 0 2.692-.038 6.978.076 8.647.075.72.607 1.744 1.252 2.047.682.38 2.237.456 3.299.456 2.996 0 5.613-1.669 5.613-5.575zm-17.521-19.038c.379 0 1.516.114 4.437.114 2.768 0 4.968-.076 7.66-.076 3.299 0 7.85 1.175 7.85 6.106 0 2.427-1.706 4.361-3.944 5.31-.113.037-.113.113 0 .15 3.186.797 5.993 2.769 5.993 6.485 0 3.641-2.276 5.955-5.575 7.396-2.01.872-4.513 1.175-7.054 1.175-1.935 0-7.13-.227-10.012-.151-.303-.114.266-1.48.531-1.707.683-.038 1.213-.076 1.934-.303 1.024-.266 1.137-.57 1.289-2.124.076-1.327.076-6.03.076-9.367 0-4.589.038-7.699 0-9.216-.038-1.175-.455-1.555-1.289-1.782a68.362 68.362 0 00-2.579-.38c-.19-.189.455-1.479.683-1.63zm-21.883 23.589c.911.72 2.693 1.023 4.286 1.023 2.048 0 4.096-.379 6.068-2.162 2.01-1.82 3.413-4.626 3.413-9.1 0-4.287-1.631-7.776-4.968-9.823-1.896-1.176-4.324-1.669-7.13-1.669-.834 0-1.631.038-2.123.266-.115.076-.38.417-.38.606-.076.759-.076 6.599-.076 10.012 0 3.527 0 8.457.076 9.026 0 .57.265 1.441.834 1.82zm-8.609-23.59c.721 0 3.489.115 4.817.115 2.389 0 4.096-.114 8.609-.114 3.792 0 6.978 1.024 9.253 2.958 2.768 2.39 4.21 5.689 4.21 9.708 0 5.727-2.617 9.027-5.234 10.923-2.616 1.934-6.03 3.071-10.884 3.071-2.579 0-7.016-.075-10.695-.114h-.037c-.19-.34.303-1.668.606-1.706.986-.114 1.252-.152 1.745-.341.796-.304.948-.72 1.062-2.124.113-2.617.076-5.764.076-9.33 0-2.54.037-7.508-.039-9.101-.113-1.327-.682-1.669-1.82-1.896-.569-.114-1.327-.266-2.389-.38-.152-.265.531-1.44.72-1.668z" fill="#8E714E"/>
        <path d="M112.629 47.83c-.948-.114-1.631-.265-2.465-.645-.114-.076-.304-.455-.304-.607-.075-1.327-.075-5.12-.075-7.66 0-2.048-.342-3.83-1.214-5.082-1.024-1.442-2.503-2.275-4.399-2.275-1.669 0-3.907 1.137-5.765 2.73-.038.038-.341.304-.303-.114 0-.417.076-1.251.114-1.82.038-.531-.266-.796-.266-.796-1.213.606-4.626 1.403-5.878 1.516-.91.19-1.138 1.062-.19 1.366h.039c1.023.303 1.706.644 2.236.986.38.303.342.72.342 1.062.038 2.844.038 7.205-.076 9.595-.037.948-.303 1.289-.986 1.44l.076-.038c-.53.114-.948.228-1.593.304-.227.227-.227 1.441 0 1.706.417 0 2.617-.113 4.438-.113 2.502 0 3.792.114 4.436.114.266-.304.342-1.442.19-1.707-.721-.038-1.252-.114-1.744-.266-.683-.152-.873-.492-.91-1.289-.076-2.01-.076-6.258-.076-9.14 0-.796.227-1.175.454-1.403.873-.758 2.276-1.29 3.528-1.29 1.213 0 2.009.38 2.616.873.835.682 1.1 1.669 1.214 2.39.189 1.63.114 4.853.114 7.66 0 1.517-.114 1.896-.683 2.086-.265.113-.948.265-1.744.34-.266.267-.19 1.442 0 1.708 1.099 0 2.389-.114 4.285-.114 2.351 0 3.868.114 4.475.114.189-.228.265-1.328.114-1.631zm10.505-14.487c-2.01 0-3.262 1.555-3.262 3.982 0 2.465 1.1 5.31 4.21 5.31.531 0 1.517-.228 1.972-.76.72-.682 1.214-2.047 1.214-3.488 0-3.148-1.556-5.044-4.134-5.044zm-.266 16.762c-.758 0-1.289.228-1.63.418-1.593 1.023-2.314 2.01-2.314 3.185 0 1.1.417 1.972 1.328 2.73 1.099.948 2.616 1.404 4.55 1.404 3.869 0 5.575-2.086 5.575-4.134 0-1.441-.721-2.39-2.199-2.92-1.062-.455-2.996-.683-5.31-.683zm.266 9.86c-2.314 0-3.982-.493-5.423-1.592-1.404-1.062-2.01-2.655-2.01-3.755 0-.303.076-1.138.758-1.896.417-.455 1.328-1.327 3.489-2.806.076-.038.114-.076.114-.152s-.076-.152-.152-.19c-1.782-.682-2.313-1.782-2.465-2.389v-.076c-.038-.227-.114-.455.228-.682.265-.19.645-.417 1.061-.683.645-.38 1.328-.797 1.745-1.138.076-.076.076-.151.076-.227 0-.076-.076-.152-.152-.19-2.654-.872-3.981-2.844-3.981-5.802 0-1.934.872-3.679 2.426-4.779 1.062-.834 3.717-1.858 5.461-1.858h.114c1.783.038 2.769.417 4.172.91.758.266 1.479.38 2.465.38 1.479 0 2.124-.456 2.654-.986.038.075.115.265.152.758a2.865 2.865 0 01-.493 1.744c-.303.418-.986.721-1.668.721h-.19c-.683-.076-.986-.152-.986-.152l-.152.076c-.038.076 0 .152.038.266l.038.076c.076.34.228 1.364.228 1.63 0 3.11-1.252 4.475-2.579 5.5-1.29.947-2.768 1.554-4.437 1.706-.038 0-.189 0-.531.038-.19 0-.455.038-.493.038h-.038c-.304.075-1.062.455-1.062 1.1 0 .568.341 1.25 1.972 1.365.341.038.682.038 1.062.076 2.162.151 4.854.34 6.106.758 1.744.644 2.844 2.2 2.844 4.058 0 2.807-2.01 5.423-5.347 7.053-1.631.721-3.262 1.1-5.044 1.1zm21.616-26.432c-.796 0-1.517.189-2.048.568-1.478.91-2.237 2.73-2.237 5.385 0 4.969 2.503 8.458 6.068 8.458 1.062 0 1.896-.304 2.616-.91 1.1-.911 1.669-2.731 1.669-5.272 0-4.93-2.465-8.23-6.067-8.23h-.001zm.683 16.231c-6.447 0-8.76-4.74-8.76-9.178 0-3.11 1.251-5.499 3.754-7.205 1.783-1.1 3.906-1.707 5.803-1.707 4.929 0 8.381 3.527 8.381 8.61 0 3.45-1.366 6.18-3.983 7.85-1.251.834-3.413 1.63-5.195 1.63zm-67.58-16.232c-.797 0-1.517.19-2.049.57-1.478.91-2.237 2.73-2.237 5.384 0 4.969 2.503 8.458 6.068 8.458 1.062 0 1.896-.304 2.617-.91 1.1-.911 1.668-2.731 1.668-5.272 0-4.93-2.427-8.23-6.067-8.23zm.682 16.232c-6.447 0-8.76-4.74-8.76-9.178 0-3.11 1.251-5.499 3.754-7.205 1.783-1.1 3.907-1.707 5.803-1.707 4.93 0 8.38 3.527 8.38 8.61 0 3.45-1.364 6.18-3.981 7.85-1.214.834-3.376 1.63-5.196 1.63zm-43.347-.38c-.076-.113-.152-.454-.114-.871 0-.304.076-.493.114-.57.796-.113 1.214-.227 1.669-.34.758-.19 1.062-.607 1.1-1.555.114-2.276.114-6.6.075-9.595v-.076c0-.342 0-.76-.417-1.062a8.569 8.569 0 00-2.275-.987c-.341-.113-.569-.303-.531-.53 0-.227.227-.493.72-.569 1.252-.114 4.513-.91 5.802-1.479.077.076.19.304.19.607l-.037.417c-.039.417-.077.91-.077 1.403 0 .152.153.266.304.266a.534.534 0 00.227-.076c2.428-1.897 4.627-2.58 5.765-2.58 1.858 0 3.3.873 4.4 2.693.075.115.151.153.265.153.075 0 .189-.038.227-.114 2.238-1.707 4.475-2.731 5.954-2.731 3.527 0 5.613 2.617 5.613 7.054 0 1.251 0 2.882-.038 4.361 0 1.327-.038 2.541-.038 3.413 0 .19.265.797.683.91.53.266 1.251.38 2.2.531h.037c.076.266-.075 1.252-.227 1.441-.228 0-.57 0-.948-.037-.96-.05-1.921-.076-2.883-.076-2.35 0-3.564.038-4.74.114-.076-.304-.114-1.214 0-1.442.683-.113 1.024-.227 1.441-.34.759-.228.948-.57.986-1.556 0-.72.152-6.864-.076-8.343-.227-1.517-1.365-3.3-3.868-3.3-.948 0-2.427.38-3.868 1.48a.676.676 0 00-.152.379v.038c.152.796.152 1.706.152 3.11v2.465c0 1.706-.038 3.299 0 4.512 0 .835.493 1.024.91 1.176.228.038.379.076.569.114.34.076.682.152 1.213.265.076.152.076.645-.038 1.062-.038.228-.114.341-.151.38-1.29-.038-2.617-.077-4.551-.077-.569 0-1.555.039-2.39.039-.682 0-1.327.038-1.706.038-.038-.077-.114-.342-.114-.76 0-.34.076-.606.152-.682.19-.038.341-.075.531-.075.455-.076.834-.152 1.213-.228.645-.19.873-.531.91-1.365.114-1.896.228-7.32-.037-8.685-.455-2.2-1.707-3.3-3.717-3.3-1.175 0-2.655.57-3.868 1.48-.19.151-.342.53-.342.872v2.238c0 2.73 0 6.143.038 7.622.039.455.19.986 1.062 1.176.19.038.493.114.873.152l.682.113c.076.228.038 1.138-.113 1.441-.38 0-.835-.037-1.366-.037a61.68 61.68 0 00-2.958-.076 57.42 57.42 0 00-3.034.076c-.53-.076-.948-.076-1.403-.076z" fill="#442D22"/>
        <path d="M15.24 58.487l-1.556-.532s.19-7.925-2.654-8.494c-1.896-2.2.304-93.293 7.13-.304 0 0-2.352 1.176-2.769 3.186-.455 1.972-.152 6.144-.152 6.144z" fill="#fff"/>
        <path d="M15.24 58.487l-1.556-.532s.19-7.925-2.654-8.494c-1.896-2.2.304-93.293 7.13-.304 0 0-2.352 1.176-2.769 3.186-.455 1.972-.152 6.144-.152 6.144z" fill="#A6A385"/>
        <path d="M16.074 50.826s13.615-8.95 10.429-27.572C23.43 9.716 16.188 5.28 15.39 3.572 14.52 2.36 13.685.235 13.685.235l.569 37.658c0 .038-1.176 11.53 1.82 12.933" fill="#fff"/>
        <path d="M16.074 50.826s13.615-8.95 10.429-27.572C23.43 9.716 16.188 5.28 15.39 3.572 14.52 2.36 13.685.235 13.685.235l.569 37.658c0 .038-1.176 11.53 1.82 12.933" fill="#499D4A"/>
        <path d="M12.889 51.319S.108 42.596.866 27.237c.72-15.359 9.747-22.906 11.491-24.271 1.138-1.214 1.176-1.669 1.252-2.883.796 1.707.645 25.523.758 28.33.341 10.808-.606 20.858-1.478 22.906z" fill="#fff"/>
        <path d="M12.889 51.319S.108 42.596.866 27.237c.72-15.359 9.747-22.906 11.491-24.271 1.138-1.214 1.176-1.669 1.252-2.883.796 1.707.645 25.523.758 28.33.341 10.808-.606 20.858-1.478 22.906z" fill="#58AA50"/>
    </g>
    <defs>
        <clipPath id="clip0">
            <path fill="#fff" transform="translate(.833)" d="M0 0h210.413v60H0z"/>
        </clipPath>
    </defs>
</svg>