<svg fill="none"
    xmlns="http://www.w3.org/2000/svg" viewBox="0 0 130 90">
    <g clip-path="url(#clip0)">
        <path d="M39.741 72.684h-3.514c-.125-5.933-.467-11.51-1.027-16.737h-.031l-5.352 16.737h-2.676l-5.32-16.737h-.03c-.395 5.018-.643 10.597-.746 16.737H17.84c.206-7.467.725-14.467 1.554-21h4.357l5.07 15.43h.032l5.101-15.43h4.169c.912 7.653 1.452 14.653 1.617 21zM54.985 57.19c-1.431 7.766-3.32 13.409-5.663 16.931-1.825 2.711-3.826 4.069-6.004 4.069-.58 0-1.297-.176-2.146-.523v-1.873c.415.06.902.094 1.462.094 1.017 0 1.835-.28 2.458-.841.746-.683 1.119-1.452 1.119-2.301 0-.583-.29-1.774-.87-3.578l-3.858-11.98h3.453l2.769 8.96c.622 2.034.881 3.454.777 4.263 1.514-4.043 2.572-8.452 3.174-13.223h3.329v.002z" fill="#5D87A1"/>
        <path d="M101.774 72.683h-9.985v-21h3.359v18.415h6.626v2.585zm-12.599.508l-3.86-1.906c.342-.28.67-.585.964-.938 1.641-1.927 2.46-4.778 2.46-8.554 0-6.947-2.727-10.423-8.181-10.423-2.675 0-4.762.882-6.254 2.646-1.64 1.929-2.458 4.77-2.458 8.525 0 3.691.725 6.4 2.177 8.117 1.328 1.556 3.33 2.335 6.006 2.335.999 0 1.915-.122 2.75-.369l5.026 2.926 1.37-2.36zM76.67 68.48c-.85-1.368-1.275-3.565-1.275-6.593 0-5.288 1.606-7.935 4.822-7.935 1.681 0 2.913.633 3.701 1.896.849 1.37 1.276 3.547 1.276 6.534 0 5.331-1.608 7.997-4.822 7.997-1.681 0-2.913-.63-3.702-1.9zm-6.287-1.619c0 1.781-.653 3.242-1.959 4.387-1.306 1.14-3.059 1.71-5.255 1.71-2.054 0-4.045-.655-5.973-1.96l.903-1.804c1.659.83 3.16 1.243 4.509 1.243 1.265 0 2.254-.28 2.971-.836.717-.559 1.144-1.342 1.144-2.332 0-1.248-.87-2.314-2.466-3.207-1.472-.809-4.416-2.498-4.416-2.498-1.595-1.163-2.394-2.412-2.394-4.468 0-1.703.596-3.077 1.788-4.122 1.193-1.05 2.733-1.572 4.62-1.572 1.95 0 3.722.522 5.318 1.556l-.81 1.804c-1.365-.58-2.712-.87-4.042-.87-1.076 0-1.908.258-2.486.778-.582.518-.942 1.18-.942 1.992 0 1.242.889 2.322 2.528 3.233 1.492.81 4.509 2.528 4.509 2.528 1.636 1.161 2.453 2.398 2.453 4.438" fill="#F8981D"/>
        <path d="M105.99 44.649c-2.031-.052-3.603.153-4.923.711-.381.152-.987.152-1.04.634.206.203.23.532.409.813.304.508.834 1.19 1.319 1.546.531.408 1.065.811 1.625 1.166.987.611 2.106.966 3.067 1.575.561.354 1.118.812 1.679 1.193.275.203.452.532.81.66v-.078c-.179-.228-.23-.559-.406-.813l-.762-.734a12.088 12.088 0 00-2.638-2.562c-.813-.56-2.589-1.32-2.919-2.256l-.052-.052c.559-.052 1.221-.255 1.751-.41.864-.228 1.651-.176 2.537-.404.407-.101.811-.23 1.22-.355v-.229c-.459-.457-.786-1.064-1.269-1.496-1.292-1.116-2.716-2.207-4.187-3.12-.788-.51-1.801-.837-2.64-1.27-.302-.152-.812-.228-.99-.482-.455-.558-.71-1.293-1.04-1.954a63.558 63.558 0 01-2.08-4.416c-.458-.99-.736-1.977-1.294-2.892-2.615-4.313-5.455-6.925-9.82-9.49-.938-.533-2.054-.76-3.246-1.04l-1.904-.1c-.406-.179-.813-.662-1.167-.89-1.448-.913-5.177-2.891-6.242-.28-.686 1.652 1.015 3.275 1.6 4.113.43.581.99 1.243 1.291 1.903.179.431.229.89.408 1.345.406 1.117.785 2.359 1.32 3.4.278.532.581 1.09.937 1.571.204.281.559.406.636.864-.354.505-.382 1.268-.585 1.902-.913 2.867-.556 6.42.738 8.526.405.634 1.37 2.03 2.662 1.496 1.144-.457.89-1.903 1.22-3.17.075-.307.025-.508.178-.71v.05c.353.71.71 1.394 1.039 2.106.787 1.242 2.158 2.537 3.3 3.397.607.46 1.089 1.245 1.85 1.525v-.076h-.05c-.154-.227-.38-.33-.582-.506-.458-.457-.965-1.015-1.32-1.522-1.064-1.422-2.005-2.995-2.84-4.62-.41-.787-.762-1.649-1.091-2.435-.154-.304-.154-.761-.408-.914-.382.557-.938 1.04-1.217 1.724-.483 1.092-.533 2.436-.712 3.834l-.1.05c-.808-.204-1.09-1.04-1.397-1.75-.76-1.802-.887-4.696-.228-6.776.177-.531.94-2.206.636-2.713-.153-.486-.661-.762-.94-1.145-.327-.48-.685-1.089-.914-1.623-.608-1.42-.915-2.994-1.57-4.413-.306-.662-.838-1.347-1.269-1.956-.483-.684-1.015-1.167-1.398-1.978-.126-.28-.303-.736-.1-1.04.05-.203.153-.28.355-.33.329-.278 1.268.075 1.598.228.94.38 1.727.735 2.512 1.268.355.255.736.737 1.192.864h.534c.81.177 1.724.049 2.487.278 1.344.432 2.561 1.066 3.654 1.75 3.323 2.108 6.064 5.102 7.914 8.679.303.583.433 1.117.71 1.725.534 1.244 1.195 2.513 1.726 3.73.533 1.193 1.04 2.41 1.802 3.4.38.533 1.906.812 2.59 1.09.505.228 1.293.43 1.75.71.863.532 1.723 1.142 2.535 1.727.404.304 1.674.939 1.749 1.447zm-25.882-22.05c-.35-.004-.7.04-1.038.128v.05h.048c.205.406.56.687.813 1.041.205.407.382.81.582 1.216l.05-.05c.357-.253.535-.66.535-1.269-.154-.179-.178-.354-.306-.532-.15-.254-.479-.38-.684-.584" fill="#5D87A1"/>
        <path d="M108.407 72.68h.525v-2.572h-.788l-.643 1.755-.699-1.755h-.76v2.572h.497v-1.957h.028l.732 1.957h.378l.73-1.957v1.957zm-4.235 0h.556v-2.136h.728v-.437h-2.043v.437h.757l.002 2.136z" fill="#F8981D"/>
    </g>
    <defs>
        <clipPath id="clip0">
            <path fill="#fff" d="M0 0h129.833v90H0z"/>
        </clipPath>
    </defs>
</svg>