<svg fill="none"
    xmlns="http://www.w3.org/2000/svg" viewBox="0 0 90 90">
    <path d="M40.742 57.321c.223 2.936.18 5.885-.13 8.812a2.348 2.348 0 01-1.234 1.994c-2.337 1.735-10.17 2.152-11.146-1.536-.36-.014-.073-1.206-.416-1.161a4.39 4.39 0 01-3.375-2.067c.014-4.033.458-18.583-6.75-14.665a7.048 7.048 0 00-3.285 4.02 13.809 13.809 0 00-.676 4.62c-.056 2.008.445 4.205.518 6.615.028 1.077.2 1.35-.602 2.267-1.29 1.477-3.544.23-4.761-1.392a5.324 5.324 0 01-.819-2.725 87.37 87.37 0 012.813-31.354c1.032-3.46 1.392-3.96 4.677-4.736a36.42 36.42 0 0111.39-.675c2.956-.962 9.97-6.171 12.997-2.037a35.232 35.232 0 0126.94 4.922c3.986.302 7.986.374 11.98.217.562-.36 1.22-.745 1.794-1.077a3.885 3.885 0 011.392-.588c.647-.101 1.49-.13 1.687.675.172.825.23 1.67.172 2.511A2.273 2.273 0 0182.1 32.1a11.304 11.304 0 01-3.23-1.046c-3.655.1-5.905-.102-9.562 0 .588.63.563 1.046.99 1.878a17.947 17.947 0 01-2.18 16.816c-.258 4.19.057 8.424.088 12.628.014 1.449.115 2.827-1.249 3.789a9.18 9.18 0 01-8.063.675 7.097 7.097 0 01-1.88-1.564c-.466.051-.937.06-1.405.028a3.412 3.412 0 01-1.938-1.42c-.26-.474-.48-.968-.661-1.477 0-1.968-.073-2.739-.073-4.705a30.009 30.009 0 01-12.223-.343l.028-.037z" fill="#CCC"/>
    <path d="M34.017 69.86a10.543 10.543 0 01-3.423-.518 4.084 4.084 0 01-2.734-2.43 1.294 1.294 0 01-.28-.905v-.127a5.064 5.064 0 01-3.516-2.28l-.068-.11v-.732c.025-3.324.09-12.158-2.908-13.956a3.094 3.094 0 00-3.173.282 6.627 6.627 0 00-3.093 3.794 13.455 13.455 0 00-.642 4.466c0 1.13.08 2.257.24 3.375.12 1.03.244 2.098.28 3.22 0 .166 0 .31.02.44a2.388 2.388 0 01-.73 2.137 2.297 2.297 0 01-1.871.81 5.2 5.2 0 01-3.589-2.228 5.549 5.549 0 01-.906-2.961A87.38 87.38 0 0110.46 30.62c1.055-3.53 1.52-4.22 5.004-5.043a36.888 36.888 0 0111.441-.695 23.58 23.58 0 002.461-1.125c3.465-1.732 8.184-4.086 10.775-.94a35.529 35.529 0 0126.907 4.973c3.894.293 7.801.36 11.703.203a73.807 73.807 0 011.704-1.021l.158-.09A3.84 3.84 0 0182 26.319c1.249-.194 1.969.15 2.185 1.016.18.868.242 1.756.183 2.64a2.727 2.727 0 01-2.225 2.557h-.073l-.07-.02a23.25 23.25 0 00-.731-.174 8.795 8.795 0 01-2.52-.838c-1.78.045-3.249.02-4.666 0-1.218-.02-2.47-.042-3.92-.02.09.177.154.35.224.523.091.246.197.487.315.72a18.374 18.374 0 01-2.14 17.23c-.158 2.717-.076 5.504 0 8.201.042 1.381.084 2.813.093 4.219v.242a4.073 4.073 0 01-1.443 3.917 9.562 9.562 0 01-8.494.723 5.061 5.061 0 01-1.586-1.229c-.099-.101-.197-.202-.298-.298-.138 0-.282.017-.408.031a2.68 2.68 0 01-.928-.017 3.867 3.867 0 01-2.202-1.606c-.198-.32-.36-.66-.481-1.015a9.403 9.403 0 00-.214-.529l-.04-.087v-.096c0-.976-.016-1.67-.036-2.34a99.025 99.025 0 01-.034-1.853 30.417 30.417 0 01-11.25-.259 49.362 49.362 0 01-.183 8.244 2.767 2.767 0 01-1.406 2.286 10.542 10.542 0 01-5.636 1.373zm-5.538-3.707h.101l.085.32a3.11 3.11 0 002.224 2.02c2.73.832 5.677.57 8.219-.729a1.933 1.933 0 001.054-1.687c.294-2.78.346-5.58.155-8.37l-.24-.068.985-1.952.116 1.303a30.03 30.03 0 0011.725.247l.509-.067v.512c0 .975.017 1.67.037 2.34.02.669.033 1.33.036 2.27.07.165.132.325.194.48.1.295.23.578.391.844a2.972 2.972 0 001.688 1.237c.201.03.406.03.607 0 .228-.027.457-.039.686-.036h.17l.123.115c.152.14.304.296.455.45.361.423.8.773 1.294 1.03a8.719 8.719 0 007.628-.63c1.09-.771 1.077-1.829 1.06-3.17v-.245c0-1.406-.05-2.812-.093-4.196-.081-2.776-.166-5.648 0-8.463v-.185l.14-.124a17.393 17.393 0 002.08-16.27 7.73 7.73 0 01-.355-.808 2.563 2.563 0 00-.563-.973l-.677-.728.992-.028c1.84-.051 3.342-.026 4.798 0 1.457.025 2.94.05 4.756 0h.133l.112.07a7.638 7.638 0 002.349.813c.23.053.458.104.68.16a1.887 1.887 0 001.325-1.713 8.835 8.835 0 00-.163-2.382c-.04-.172-.116-.495-1.17-.33a2.997 2.997 0 00-1.08.445l-.158.09c-.562.32-1.206.712-1.774 1.066l-.105.065h-.12c-4.012.164-8.03.092-12.032-.217h-.118l-.099-.067A34.726 34.726 0 0040.03 23.74l-.281.05-.166-.224c-2.101-2.869-6.564-.639-9.824.99-.863.461-1.756.866-2.672 1.21l-.09.027h-.093a35.976 35.976 0 00-11.25.664c-3.153.743-3.375 1.125-4.35 4.427a86.484 86.484 0 00-2.813 31.19c.006.88.257 1.742.725 2.487a4.362 4.362 0 002.906 1.873 1.406 1.406 0 001.161-.503 1.552 1.552 0 00.512-1.497c0-.137-.017-.28-.02-.46a32.653 32.653 0 00-.28-3.145 24.631 24.631 0 01-.246-3.496c-.04-1.623.198-3.24.706-4.781a7.51 7.51 0 013.488-4.245 3.938 3.938 0 014.061-.28c3.44 2.06 3.375 10.94 3.347 14.731v.47a3.938 3.938 0 002.891 1.75.56.56 0 01.422.126 1.126 1.126 0 01.281.844c.026.064.029.146.034.205z" fill="#CCC"/>
    <path d="M39.069 56.196a48.78 48.78 0 01-.13 8.812 2.348 2.348 0 01-1.234 1.994c-2.337 1.735-10.17 2.152-11.146-1.536-.36-.014-.073-1.206-.416-1.161a4.39 4.39 0 01-3.375-2.067c.014-4.033.458-18.583-6.75-14.665a7.048 7.048 0 00-3.285 4.02 13.811 13.811 0 00-.675 4.62c-.057 2.008.444 4.205.517 6.615.028 1.077.2 1.35-.602 2.267-1.29 1.477-3.543.23-4.761-1.392a5.324 5.324 0 01-.819-2.725 87.37 87.37 0 012.813-31.354c1.032-3.46 1.392-3.96 4.677-4.736a36.419 36.419 0 0111.39-.675c2.957-.962 9.97-6.171 12.997-2.037a35.233 35.233 0 0126.941 4.922c3.985.302 7.985.374 11.978.217.563-.36 1.221-.745 1.795-1.077a3.884 3.884 0 011.392-.588c.647-.101 1.49-.13 1.688.675.17.825.229 1.67.171 2.511a2.273 2.273 0 01-1.808 2.138 11.302 11.302 0 01-3.229-1.046c-3.656.1-5.906-.102-9.563 0 .588.63.563 1.046.99 1.878a17.947 17.947 0 01-2.18 16.816c-.258 4.19.057 8.424.088 12.628.014 1.449.115 2.827-1.249 3.789a9.18 9.18 0 01-8.063.675 7.098 7.098 0 01-1.879-1.564c-.467.051-.938.06-1.406.028a3.411 3.411 0 01-1.938-1.42c-.26-.474-.48-.968-.661-1.477 0-1.968-.073-2.739-.073-4.705a30.009 30.009 0 01-12.223-.343l.028-.037z" fill="#373435"/>
    <path d="M32.343 68.734a10.542 10.542 0 01-3.423-.517 4.083 4.083 0 01-2.733-2.43 1.294 1.294 0 01-.282-.906v-.126a5.063 5.063 0 01-3.515-2.281l-.068-.11v-.731c.026-3.325.09-12.159-2.908-13.956a3.094 3.094 0 00-3.172.282 6.626 6.626 0 00-3.094 3.794 13.45 13.45 0 00-.641 4.466c0 1.13.08 2.257.239 3.375.12 1.032.245 2.098.281 3.223 0 .166 0 .31.02.439a2.388 2.388 0 01-.732 2.137 2.295 2.295 0 01-1.87.81 5.2 5.2 0 01-3.589-2.227 5.552 5.552 0 01-.905-2.962 87.379 87.379 0 012.835-31.52c1.055-3.53 1.519-4.218 5.003-5.042a36.882 36.882 0 0111.441-.695 23.57 23.57 0 002.461-1.125c3.465-1.733 8.185-4.09 10.775-.94a35.532 35.532 0 0126.907 4.976c3.89.294 7.792.364 11.69.208.547-.34 1.16-.709 1.703-1.02l.158-.09a3.842 3.842 0 011.39-.563c1.248-.194 1.968.149 2.185 1.015.18.868.242 1.756.182 2.64a2.728 2.728 0 01-2.224 2.557h-.073l-.07-.02c-.243-.061-.487-.12-.732-.174a8.793 8.793 0 01-2.5-.843c-1.78.045-3.249.02-4.666 0-1.218-.02-2.47-.043-3.92-.02.09.177.154.349.224.523.091.246.197.486.315.72a18.377 18.377 0 01-2.14 17.23c-.158 2.716-.076 5.503 0 8.198.04 1.384.081 2.812.093 4.219v.242a4.072 4.072 0 01-1.44 3.917 9.562 9.562 0 01-8.494.723 5.062 5.062 0 01-1.586-1.229 9.975 9.975 0 00-.298-.298c-.138 0-.282.017-.408.03a2.672 2.672 0 01-.928-.016 3.868 3.868 0 01-2.203-1.606c-.198-.32-.359-.66-.48-1.015a9.478 9.478 0 00-.214-.529l-.04-.087v-.096c0-.976-.017-1.67-.036-2.34-.014-.562-.031-1.125-.034-1.853a30.424 30.424 0 01-11.25-.259c.162 2.746.094 5.5-.202 8.235a2.769 2.769 0 01-1.407 2.287 10.542 10.542 0 01-5.625 1.38zm-5.538-3.706h.102l.084.32a3.11 3.11 0 002.225 2.02 11 11 0 008.218-.729 1.931 1.931 0 001.055-1.687c.294-2.78.345-5.581.154-8.37l-.239-.068.97-1.938.116 1.303c3.854.852 7.838.936 11.725.247l.51-.067v.511c0 .976.016 1.671.036 2.34.02.67.034 1.33.036 2.27.07.166.133.326.194.484.1.294.23.578.391.844a2.973 2.973 0 001.688 1.237c.201.03.406.03.607 0 .228-.027.457-.04.687-.036h.168l.124.115c.152.14.304.281.456.45.36.423.8.772 1.294 1.03a8.719 8.719 0 007.627-.63c1.091-.771 1.077-1.829 1.06-3.17v-.245c0-1.406-.05-2.813-.093-4.2-.081-2.775-.165-5.644 0-8.46v-.185l.141-.124a17.394 17.394 0 002.079-16.27 7.73 7.73 0 01-.355-.807 2.563 2.563 0 00-.562-.973l-.678-.729.993-.028c1.84-.05 3.34-.025 4.798 0 1.457.026 2.939.05 4.756 0h.132l.112.07a7.638 7.638 0 002.349.813c.23.054.458.104.68.16a1.887 1.887 0 001.325-1.712 8.842 8.842 0 00-.163-2.382c-.04-.172-.115-.492-1.17-.33a2.99 2.99 0 00-1.08.445l-.16.09c-.563.323-1.212.714-1.775 1.066l-.079.056h-.12c-4.012.164-8.03.092-12.032-.216h-.119l-.104-.073a34.726 34.726 0 00-26.609-4.852l-.281.05-.166-.224c-2.1-2.87-6.564-.639-9.824.99a22.2 22.2 0 01-2.672 1.209l-.09.028h-.093a35.964 35.964 0 00-11.25.664c-3.152.742-3.375 1.125-4.35 4.427a86.484 86.484 0 00-2.813 31.19c.006.88.257 1.741.725 2.486a4.362 4.362 0 002.906 1.874 1.385 1.385 0 001.161-.504 1.552 1.552 0 00.512-1.496c0-.138-.017-.281-.02-.461a32.653 32.653 0 00-.28-3.145 24.587 24.587 0 01-.245-3.496c-.042-1.622.197-3.24.706-4.78a7.51 7.51 0 013.487-4.245 3.936 3.936 0 014.061-.281c3.44 2.061 3.375 10.94 3.347 14.732v.47a3.938 3.938 0 002.92 1.737.564.564 0 01.421.127 1.125 1.125 0 01.282.844c-.005.071-.004.143.002.214z" fill="#373435"/>
    <path d="M52.234 56.098a13.455 13.455 0 002.66-.532c.436 2.553.565 5.149.386 7.732a3.31 3.31 0 01-3.19-1.865 24.67 24.67 0 01.144-5.335z" fill="#6978AB"/>
    <path d="M55.187 63.748a3.74 3.74 0 01-3.493-2.106l-.042-.079v-.09a25.253 25.253 0 01.146-5.434l.045-.349.349-.039a13.225 13.225 0 002.573-.512l.462-.149.112.473c.423 2.303.562 4.65.414 6.986l-.023 1.29h-.433l-.11.01zm-2.655-2.447a2.814 2.814 0 002.31 1.533v-.405a30.896 30.896 0 00-.282-6.294c-.631.166-1.273.288-1.92.366a24.211 24.211 0 00-.11 4.812l.002-.012z" fill="#373435"/>
    <path d="M11.396 63.796c-.632-4.146-1.277-11.461 1.688-14.949.235-.316.488-.617.76-.902 4.676-4.405 8.752-.616 9.857 4.26.234 3.084.282 6.179.143 9.268A3.119 3.119 0 0026.8 63.16c.43.89.315 1.55.805 2.138a7.03 7.03 0 007.594 1.952c.88-.374 1.738-.8 2.567-1.277a28.519 28.519 0 00-.28-11.377c0-.517-.172-.86-.172-1.378.321.046.624.18.874.388-.562 2.065 7.189 3.485 16.231.99.101-.36-.073-.804.144-.933a1.127 1.127 0 01.947-.116c.043.661.057 1.305.102 1.969a13.09 13.09 0 002.11.028 2.357 2.357 0 01-1.688.602c.157 0-.088.3.056.329.416.101 1.206-.056 1.535.087-.615.36-1.305.158-1.72.563.1 2.194.157 4.547.244 6.75a7.288 7.288 0 009.312-.416 80.537 80.537 0 00-.281-13.22c-.33-.041-.661-.1-.99-.143 5.138-6.913 6.128-13.986 1.822-20.37-.042-.282-.23-.563-.28-.844 3.745-.144 7.593.244 11.35.1a18.22 18.22 0 003.128.876c1.105-.389 1.305-3.457.216-3.114-1.088.343-1.687 1.032-2.854 1.463-4.306 0-9.085-.172-13.388-.172a26.719 26.719 0 00-25.312-4.362 23.544 23.544 0 01.73 18.076c-.244.804-3.96 3.155-.919.588 3.072-2.61 1.148-20.743-2.627-20.774a17.794 17.794 0 00-11.953 4.782c-.588-.63-.545-.374-.281-1.263a27.739 27.739 0 00-9.563.844 4.016 4.016 0 00-3.656 2.669 95.48 95.48 0 00-3.375 31.202c.148 1.26.482 2.493.99 3.656 1.688 1.85 2.599 1.319 3.159.343h.02z" fill="url(#paint0_linear)"/>
    <path d="M18.13 29.312a6.151 6.151 0 00-2.99-.42.405.405 0 00-.43.282.563.563 0 00-.057.433c.087.245.101.23.315.281.283.043.572.017.844-.073a2.483 2.483 0 012.098-.101c.315-.014.346-.143.245-.391l-.026-.011z" fill="#373435"/>
    <path d="M15.205 30.35c-.112 0-.223-.011-.332-.034h-.037a.692.692 0 01-.61-.563 1.032 1.032 0 01.087-.798.828.828 0 01.796-.506 6.567 6.567 0 013.094.419h.23l.116.28a.667.667 0 01-.639 1.01h-.067l-.076-.022a2.031 2.031 0 00-1.744.062l-.05.03-.057.015c-.231.066-.47.102-.711.107zm-.124-.909c.19.02.38 0 .563-.056l.151-.076c-.197 0-.396 0-.599.031h-.073l-.017.034a.213.213 0 00-.025.067zM15.812 32.87a1.544 1.544 0 011.426-.875c.056-.36 0-.562-.462-.562a4.318 4.318 0 00-1.625 1.434 2.956 2.956 0 00-.217 1.688c.052.39.254.745.563.99a1.873 1.873 0 002.115-.088c1.007-.587 2.014-2.267.245-2.9a2.708 2.708 0 00-2.06.43c-.027.015-.041-.041 0-.114l.015-.003z" fill="#373435"/>
    <path d="M16.357 36.298a1.75 1.75 0 01-1.147-.4 1.969 1.969 0 01-.72-1.287 3.246 3.246 0 01.281-1.97 4.782 4.782 0 011.786-1.597l.099-.059h.106a.95.95 0 01.757.268.98.98 0 01.163.812 1.92 1.92 0 011.586 1.474 2.743 2.743 0 01-1.428 2.315 3.002 3.002 0 01-1.483.444zM15.45 33.3c-.104.396-.127.81-.068 1.215.04.277.186.527.408.697.543.453 1.423-.03 1.595-.132a1.895 1.895 0 00.99-1.456c-.025-.282-.25-.484-.667-.633a2.317 2.317 0 00-1.667.388l-.037.02-.3.151-.248-.25h-.006z" fill="#373435"/>
    <path d="M16.594 34.822c.006.102.025.203.059.3a.593.593 0 00.059.13.606.606 0 01-.563.056c-.621-.281-.576-1.153-.258-1.625a1.888 1.888 0 011.487-.822c.332.172.433.332.26.374a.95.95 0 00-.282.102.515.515 0 00-.281.317c.143.043.216 0 .346.057v.447a.675.675 0 00-.448-.056c-.28.087-.39.489-.39.734l.01-.014z" fill="#FEFEFE"/>
    <path d="M17.783 46.29a6.16 6.16 0 004.717-7.382 3.093 3.093 0 01-1.437-.388c-.028-.186-.043-.374-.073-.563 1.164.563 2.812.732 2.598-1.049.158-.042.402-.056.563-.1-.056 1.248-.282 1.363-1.05 1.895a8.464 8.464 0 01-2.53 7.498c-.06.39-.026.79.1 1.164a3.466 3.466 0 00-2.885-1.049l-.003-.025z" fill="#373435"/>
    <path d="M21.465 48.912L20.34 47.67a3.04 3.04 0 00-2.548-.9h-.456v-.787l.318-.127a5.681 5.681 0 004.455-6.545 2.892 2.892 0 01-1.288-.413l-.175-.11-.03-.2-.04-.295-.034-.264-.13-.844.769.371a2.063 2.063 0 001.757.225c.18-.126.248-.402.2-.818l-.042-.383.371-.1c.11-.028.222-.049.335-.063a2.04 2.04 0 00.225-.039l.596-.163-.028.616c-.06 1.282-.34 1.606-1.015 2.087a8.921 8.921 0 01-2.602 7.506c0 .24.034.478.099.709l.388 1.78zm-1.97-2.835c.205.066.403.15.592.253.008-.095.028-.19.059-.28l.03-.09.065-.071c.24-.257.462-.515.667-.774a7.433 7.433 0 01-1.412.962z" fill="#373435"/>
    <path d="M62.317 65.287c-.07-1.06-.2-1.992-.23-3.055-.071-2.435-1.922-2.967-2.023-.531-.056 1.277 0 2.48 0 3.684.75.103 1.514.07 2.253-.098z" fill="#8093D0"/>
    <path d="M61.14 65.587c-.28 0-.545-.017-.812-.033l-.422-.023V64.195c0-.804-.026-1.637 0-2.494.053-1.275.562-1.727 1.015-1.727.6 0 1.257.796 1.302 2.25.017.65.073 1.243.13 1.87.036.382.07.77.098 1.176v.12l-.115.034c-.389.11-.791.166-1.195.163zm-.925-.337h.135a5.604 5.604 0 001.809-.082c-.026-.36-.06-.706-.09-1.046-.06-.633-.113-1.229-.133-1.89-.036-1.212-.562-1.969-1.004-1.969-.303 0-.672.377-.717 1.44-.04.844-.025 1.688 0 2.478-.006.36 0 .712 0 1.069z" fill="#373435"/>
    <path d="M60.098 65.41a17.883 17.883 0 01-.228-3.704c.157-2.25-1.969-4.62-2.112-.444a22.368 22.368 0 00.143 3.656c.718.22 1.453.385 2.197.492z" fill="#8093D0"/>
    <path d="M60.27 65.59l-.195-.03a14.475 14.475 0 01-2.222-.493l-.09-.03v-.094a22.423 22.423 0 01-.143-3.684c.045-1.347.281-2.146.74-2.377a.622.622 0 01.657.065 3.375 3.375 0 011.016 2.77 15.4 15.4 0 00.154 3.252l.082.621zm-2.234-.779c.619.184 1.25.325 1.887.422l-.028-.234a15.873 15.873 0 01-.177-3.301 3.094 3.094 0 00-.88-2.5.335.335 0 00-.355-.051c-.154.078-.52.447-.58 2.12a22.224 22.224 0 00.133 3.544z" fill="#373435"/>
    <path d="M57.904 65.11l-.3-4.782c-.218-3.569-1.652-3.153-1.767-.214-.056 1.39.056 2.15-.073 3.542.675.458 1.378 1.36 2.14 1.434v.02z" fill="#8093D0"/>
    <path d="M57.89 65.25a3.094 3.094 0 01-1.562-.931 7.031 7.031 0 00-.647-.529l-.073-.05v-.088c.06-.673.079-1.349.06-2.025V60.12c.059-1.5.455-2.472 1.01-2.478.562 0 .95 1.004 1.051 2.689l.301 4.781h-.152l.011.138zm-1.97-1.657c.203.147.406.327.605.501a3.6 3.6 0 001.215.824l-.281-4.568c-.107-1.769-.509-2.407-.754-2.407-.253 0-.655.7-.711 2.191a17.568 17.568 0 000 1.493c.01.655-.014 1.31-.073 1.96v.006z" fill="#373435"/>
    <path d="M33.37 67.579c.039-1.12-.018-2.24-.17-3.35-.603-2.587-1.362-2.905-2.25-.993v4.298c.803.11 1.617.12 2.424.028l-.003.017z" fill="#8093D0"/>
    <path d="M32.462 67.781c-.467 0-.934-.042-1.393-.084l-.28-.025v-4.5c.43-.926.843-1.356 1.26-1.31.511.052.916.792 1.273 2.33l.028.245a18.58 18.58 0 01.15 3.145h-.147l.02.13a5.83 5.83 0 01-.911.07zm-1.367-.382c.706.09 1.42.103 2.129.037.028-.99-.023-1.98-.152-2.962l-.026-.228c-.41-1.763-.81-2.064-1.01-2.084-.154 0-.472.11-.941 1.111v4.126z" fill="#373435"/>
    <path d="M28.969 66.87c.014-1.648.028-2.74.028-4.388.602-2.424 1.218-2.18 1.82.732.014 1.563.028 2.582.028 4.142a4.631 4.631 0 01-1.893-.486h.017z" fill="#8093D0"/>
    <path d="M30.985 67.525l-.253-.028A4.577 4.577 0 0128.867 67l-.492-.281h.433v-.844c0-1.153.02-2.106.02-3.406v-.036c.304-1.22.602-1.767.97-1.767.281 0 .678.296 1.125 2.504v.973c0 1.083.02 1.969.02 3.203l.042.18zm-1.876-.737a4.264 4.264 0 001.578.4c0-1.142 0-2-.02-3.032v-.942c-.441-2.118-.779-2.233-.844-2.233-.064 0-.306.033-.677 1.518 0 1.291 0 2.25-.02 3.392l-.017.897z" fill="#373435"/>
    <path d="M26.719 63.627c.087-1.378.374-2.77.458-4.148-.562-2.728-1.175-3.215-1.82-1.435-.028 1.767-.042 3.547-.07 5.313a2 2 0 001.434.281l-.002-.01z" fill="#8093D0"/>
    <path d="M26.361 63.844a2.25 2.25 0 01-.978-.281l-.236-.107v-.099c.015-.883.027-1.768.036-2.655.01-.887.022-1.773.037-2.658v-.047c.28-.808.579-1.17.917-1.148.337.023.728.34 1.192 2.605v.039a28.108 28.108 0 01-.23 2.084 28.224 28.224 0 00-.229 2.059v.13l-.118.024c-.128.032-.259.05-.39.054zm-.91-.563l.055.026c.326.194.707.275 1.083.23.045-.66.135-1.333.225-1.983.09-.65.183-1.366.228-2.044-.442-2.146-.813-2.337-.917-2.346-.056 0-.281.048-.605.928-.014.874-.027 1.75-.036 2.63-.01.88-.02 1.725-.034 2.537v.022z" fill="#373435"/>
    <path d="M53.497 63.191c.115-1.465-.042-2.686 0-4.12.042-1.738 1.76-1.235 1.833.36.074 1.595.158 2.413.245 4.005a3.682 3.682 0 01-2.062-.245h-.016z" fill="#8093D0"/>
    <path d="M54.74 63.613a2.594 2.594 0 01-1.27-.28h-.123v-.161c.05-.783.056-1.568.017-2.351-.017-.563-.037-1.145-.017-1.761.023-.906.47-1.232.88-1.235.563 0 1.201.605 1.244 1.592.042.813.084 1.406.123 2.028.04.621.079 1.19.121 1.969v.151l-.436.017c-.179.022-.36.032-.54.031zm-1.09-.517a3.094 3.094 0 001.63.202h.134a163.16 163.16 0 00-.112-1.822c-.04-.61-.079-1.218-.124-2.034-.045-.815-.515-1.307-.945-1.307-.351 0-.563.357-.585.945-.023.587 0 1.184.017 1.743.035.758.03 1.516-.014 2.273z" fill="#373435"/>
    <path d="M53.406 63.245c-.042-1.075-.028-2.366-.07-3.44.101-1.477-.917-3.657-1.316-1.232a24.1 24.1 0 00-.228 2.708c.463.713 1.005 1.371 1.614 1.964z" fill="#B9C5EA"/>
    <path d="M53.567 63.548l-.25-.18a7.19 7.19 0 01-1.286-1.493 15.497 15.497 0 00-.36-.49l-.036-.044v-.057c.02-.28.034-.562.045-.787.02-.648.083-1.295.185-1.935.051-.315.209-1.271.712-1.21.563.068.965 1.57.903 2.476.022.523.028 1.124.036 1.707.009.582.014 1.18.037 1.715l.014.298zm-1.626-2.312c.099.127.211.282.335.456.291.43.616.838.97 1.218 0-.444-.02-.92-.025-1.381 0-.58-.014-1.181-.036-1.716.07-1.046-.394-2.146-.639-2.174-.053-.017-.248.152-.383.96-.1.629-.161 1.264-.182 1.9l-.04.735v.002zM40.62 43.478c.732-3.487 1.45-6.975 2.18-10.476.116-.819.33-1.55 1.19-1.623h1.046c.63 0 .99.374 1.047 1.125l-.214 1.55c.028.632.416.99 1.19 1.049 1.046.042 2.11.1 3.155.143 1.578.101 2.639.776 2.532 2.742l-.99 5.195a2.04 2.04 0 01-1.334 1.822c-.472-.028-1.004.029-1.476 0-.819.043-1.291-.258-.99-1.336.3-1.363.675-3.07.99-4.435.115-1.623-.487-1.707-1.125-1.822-.546-.073-1.075 0-1.62-.073-.804.115-1.105.888-1.333 1.752-.343 1.448-.703 2.9-1.047 4.362-.157.79-.328 1.305-.916 1.55h-1.75c-.66-.145-.847-.661-.562-1.55l.028.025z" fill="#373435"/>
    <path d="M49.244 45.31h-.307a1.318 1.318 0 01-1.167-.386 1.437 1.437 0 01-.11-1.33l.172-.782c.261-1.187.562-2.511.81-3.617.087-1.308-.264-1.372-.844-1.48-.523-.07-1.026 0-1.589-.067-.562.101-.818.661-1.049 1.525l-.467 1.938-.58 2.418c-.19.81-.345 1.446-1.093 1.758l-.056.023H41.09a1.126 1.126 0 01-.776-.52 1.732 1.732 0 010-1.407l.093-.281 1.125-5.454.97-4.671c.079-.563.245-1.758 1.46-1.86h1.071c.462 0 1.252.18 1.345 1.407v.03l-.217 1.553c.02.318.152.681.912.737l1.577.07 1.567.07a2.61 2.61 0 012.812 3.058v.04l-.99 5.197a2.33 2.33 0 01-1.527 2.047l-.056.02h-.773c-.144-.042-.293-.036-.44-.036zm-.304-.608h1.432a1.76 1.76 0 001.082-1.566l.988-5.187c.087-1.58-.585-2.3-2.25-2.404l-1.564-.07-1.584-.074c-1.237-.093-1.456-.875-1.476-1.333v-.037l.214-1.544c-.065-.72-.433-.812-.746-.812H43.99c-.517.045-.76.402-.894 1.364l-.976 4.69a2690.3 2690.3 0 01-1.21 5.806l-.112.543-.034-.034a.735.735 0 00.065.425.527.527 0 00.354.227h1.651c.402-.19.54-.562.686-1.31l.583-2.433.466-1.943c.172-.642.484-1.823 1.584-1.97h.081c.512.068 1.047 0 1.62.074h.04c.804.146 1.46.408 1.339 2.135v.047a192.815 192.815 0 00-.813 3.634l-.177.799c-.113.402-.113.678 0 .813.112.135.441.171.683.16h.014z" fill="#FEFEFE"/>
    <path d="M27.067 47.514c.718-3.718 1.449-7.436 2.169-11.14a1.198 1.198 0 011.263-1.263h6.603a3.462 3.462 0 013.114 1.752c.442.8.627 1.718.531 2.627a6.609 6.609 0 01-1.952 4.12 6.147 6.147 0 01-3.228 1.407c-1.125.028-2.25.042-3.375.073-.647-.056-1.291.115-1.449.633-.2.703-.343 1.406-.545 2.095a1.181 1.181 0 01-.746.647c-.647.014-1.305.014-1.952.028-.691.011-.548-.4-.433-.979zm4.607-6.373c.186-.976.416-2.081.588-2.942a1.271 1.271 0 011.263-.843c.68-.049 1.364.04 2.01.258a2.155 2.155 0 011.078 3.044 4.041 4.041 0 01-2.396 1.968c-.468.122-.952.17-1.435.144-1.234-.13-1.336-.459-1.125-1.637l.017.008z" fill="#373435"/>
    <path d="M27.467 48.791a.796.796 0 01-.652-.239c-.214-.256-.14-.602-.065-.967l.026-.127c.395-2.047.794-4.095 1.195-6.142l.965-4.956a1.406 1.406 0 01.388-1.06 1.573 1.573 0 011.19-.487h6.589a3.732 3.732 0 013.375 1.916c.466.849.663 1.82.563 2.784a6.913 6.913 0 01-2.037 4.309l-.033.03a6.436 6.436 0 01-3.375 1.466c-.58.017-1.145.025-1.708.037l-1.687.036h-.034c-.453-.04-1.024.045-1.125.422-.101.377-.183.686-.281 1.032-.099.346-.175.703-.281 1.06a1.43 1.43 0 01-.917.844l-.054.023h-.056l-.97.014-.982.014-.034-.009zm-.188-.618c.07.018.142.025.214.02l.99-.015h.905c.304-.135.478-.281.526-.433.099-.346.183-.689.281-1.035.099-.346.175-.703.282-1.057.183-.602.843-.926 1.746-.844l1.67-.037 1.688-.036a5.858 5.858 0 003.038-1.333 6.317 6.317 0 001.853-3.915 4.182 4.182 0 00-.5-2.472 3.218 3.218 0 00-2.863-1.587h-6.61a.964.964 0 00-.74.301.803.803 0 00-.224.636v.084l-.974 4.998-1.195 6.142-.028.133c-.043.151-.062.309-.056.467l-.003-.017zm5.771-5.097h-.298a1.79 1.79 0 01-1.288-.503c-.25-.335-.228-.78-.098-1.485l.1-.563.02.02c.099-.503.206-1.02.304-1.507l.206-.965a1.561 1.561 0 011.552-1.013 5.312 5.312 0 012.095.282 2.268 2.268 0 011.328 1.263 2.786 2.786 0 01-.085 2.182l-.02.037a4.32 4.32 0 01-2.562 2.095 5.82 5.82 0 01-1.257.157h.003zm-1.161-1.44a.864.864 0 00.059.563c.098.13.374.214.866.267.45.022.902-.024 1.339-.138a3.72 3.72 0 002.196-1.814 2.178 2.178 0 00.07-1.687 1.688 1.688 0 00-.987-.931 4.814 4.814 0 00-1.895-.24.957.957 0 00-.985.648l-.171.843c-.135.664-.282 1.387-.408 2.05l-.084.44z" fill="#FEFEFE"/>
    <path d="M52.158 47.514c.717-3.718 1.449-7.436 2.169-11.14a1.198 1.198 0 011.262-1.263h6.604a3.462 3.462 0 013.114 1.752c.442.8.627 1.718.531 2.627a6.609 6.609 0 01-1.952 4.12 6.147 6.147 0 01-3.229 1.407c-1.124.028-2.25.042-3.374.073-.647-.056-1.291.115-1.449.633-.2.703-.343 1.406-.546 2.095a1.181 1.181 0 01-.745.647c-.647.014-1.305.014-1.952.028-.692.011-.56-.4-.433-.979zm4.607-6.373c.186-.976.416-2.081.588-2.942a1.271 1.271 0 011.263-.843c.68-.049 1.364.04 2.01.258a2.155 2.155 0 011.078 3.044 4.041 4.041 0 01-2.397 1.968c-.467.122-.951.17-1.434.144-1.235-.13-1.336-.459-1.125-1.637l.017.008z" fill="#373435"/>
    <path d="M52.557 48.791a.798.798 0 01-.652-.239c-.214-.256-.141-.602-.065-.967l.025-.127c.394-2.042.79-4.082 1.19-6.12l.97-4.978a1.406 1.406 0 01.388-1.06 1.573 1.573 0 011.19-.487h6.59a3.732 3.732 0 013.375 1.916c.466.849.662 1.82.562 2.784a6.916 6.916 0 01-2.036 4.309l-.034.03a6.436 6.436 0 01-3.375 1.466c-.58.017-1.144.025-1.707.037l-1.687.036h-.034c-.456-.04-1.024.045-1.125.422-.101.377-.183.686-.281 1.03-.099.342-.175.705-.282 1.06a1.431 1.431 0 01-.916.843l-.054.023h-.056l-.97.014-.982.014-.034-.006zm-.188-.618c.07.018.142.024.214.02l.99-.015h.905c.304-.135.478-.281.526-.433.099-.346.186-.692.281-1.035.096-.343.175-.7.282-1.055.182-.601.843-.925 1.746-.843l1.67-.037 1.688-.036a5.858 5.858 0 003.038-1.334 6.316 6.316 0 001.853-3.915 4.18 4.18 0 00-.5-2.472 3.217 3.217 0 00-2.864-1.586H55.59a.96.96 0 00-.74.301.8.8 0 00-.225.636v.084l-.976 5.02-1.19 6.12-.027.132a1.52 1.52 0 00-.057.467l-.005-.02zm5.771-5.097h-.298a1.789 1.789 0 01-1.288-.503c-.25-.335-.228-.78-.099-1.485l.102-.563.02.02c.098-.506.205-1.026.303-1.516l.205-.959a1.553 1.553 0 011.553-1.012 5.343 5.343 0 012.095.28 2.267 2.267 0 011.328 1.264 2.784 2.784 0 01-.085 2.182l-.02.037a4.32 4.32 0 01-2.562 2.095 5.816 5.816 0 01-1.254.16zm-1.164-1.437a.864.864 0 00.059.563c.098.13.374.214.866.267.45.022.902-.024 1.339-.138a3.72 3.72 0 002.196-1.814 2.18 2.18 0 00.07-1.688 1.687 1.687 0 00-.987-.93 4.805 4.805 0 00-1.895-.24.96.96 0 00-.985.647l-.171.844c-.135.667-.282 1.392-.408 2.056l-.084.433z" fill="#FEFEFE"/>
    <path d="M9.633 64.423a4.545 4.545 0 01-.844-1.105 3.966 3.966 0 01-.486-2.067c-.732-12.468-.088-23.372 3.886-32.282.487-1.092.563-1.42 1.578-1.924a20.896 20.896 0 019.71-1.125c.1-.281.3-.563.213-.844a28 28 0 00-8.848.703c-1.969.315-3.887.661-4.36 3.789-3.97 10.516-3.684 20.475-3.27 30.26a6.843 6.843 0 00.314 2.08c.774 2.467 1.522 2.383 2.11 2.512l-.003.003zM24.885 62.862c0-2.596-.214-5.192-.214-7.799a15.225 15.225 0 00-.96-4.345 21.039 21.039 0 00-1.968-2.883 20.776 20.776 0 011.969 13.837c.4.4.756.802 1.173 1.19z" fill="#EBEFFF"/>
    <path d="M25.099 63.377l-.2-.076a4.32 4.32 0 01-1.856-1.524l-.194-.245h.182c.043-.931.026-1.783 0-2.61-.016-.872-.036-1.772.015-2.762v-.166l.165.025a2.218 2.218 0 011.941 1.688v.045l-.037 2.686-.036 2.728.02.211zm-1.775-1.727c.386.538.893.98 1.48 1.288 0-.889.022-1.687.033-2.506 0-.843.023-1.707.037-2.663a1.89 1.89 0 00-1.53-1.42c-.04.91-.023 1.752 0 2.567 0 .864.028 1.755-.02 2.734z" fill="#373435"/>
    <path d="M28.834 66.535a2.875 2.875 0 01-1.406-1.19c-.102-4.634-.189-9.28-.282-13.918l.706.703c.159.977.23 1.966.217 2.956l.216.562c-.003 3.636.18 7.27.549 10.887z" fill="#EBEFFF"/>
    <path d="M29.067 67.565l-.197-.065a3.4 3.4 0 01-1.892-1.648l-.02-.04v-.056c0-1.544.028-3.141.028-4.705v-.04l.02-.033c.424-.773.79-1.271 1.19-1.193.312.062.663.425.9 2.63 0 1.64-.029 3.31-.029 4.945v.205zm-1.808-1.828c.332.624.864 1.12 1.51 1.406 0-1.567.014-3.161.028-4.708-.219-2.05-.534-2.332-.658-2.357-.123-.025-.365.132-.843 1.01-.015 1.547-.015 3.124-.037 4.652v-.003z" fill="#373435"/>
    <path d="M23.906 50.785a1.991 1.991 0 00-.101-.703c.115.028.23.042.343.073l1.82 1.48a1.06 1.06 0 00.562-.563.76.76 0 01.602.281c.028 1.179-.056 2.34-.028 3.516.189.161.31.386.343.633a20.2 20.2 0 012.25.216c.042.186.101.301.143.49a11.347 11.347 0 00-2.53 0v.531c.659-.034 1.32.015 1.968.144l.07.388a7.962 7.962 0 00-2.106.028c.1 2.894.1 5.79 0 8.685-.231-.546-.673-1.077-.917-1.623.436-3.712.494-7.459.171-11.182a7.722 7.722 0 00-2.59-2.394z" fill="#373435"/>
    <path d="M26.842 66.161a5.557 5.557 0 00-.436-.77 6.804 6.804 0 01-.478-.844l-.053-.115.017-.127c.426-3.641.484-7.316.174-10.969a7.593 7.593 0 00-2.396-2.157l-.253-.163.056-.298a.965.965 0 00-.05-.318 3.516 3.516 0 01-.051-.222l-.13-.69.68.17.147.03c.065 0 .132.026.197.043l.096.025 1.642 1.333a.44.44 0 00.11-.16l.11-.282h.312a1.202 1.202 0 01.97.482l.076.11v.134c.014.6 0 1.201-.014 1.78 0 .515-.026 1.047-.017 1.57.097.111.179.235.242.368.467.02.928.082 1.378.138l.58.07.314.037.07.31c.017.068.037.135.06.202.028.087.059.177.084.281l.138.596-.61-.047h-.11l.205 1.125-.593-.062a8.15 8.15 0 00-1.6-.026c.087 2.769.087 5.54 0 8.308l-.867.138zm-.04-1.867l.054.101v-.616c-.013.173-.03.344-.053.515zm-.604-12.263c.178.19.343.392.492.605v-.973c-.14.15-.307.276-.492.368z" fill="#373435"/>
    <path d="M25.652 25.211a9.766 9.766 0 003.676-1.263 16.73 16.73 0 017.293-2.11 5.063 5.063 0 00-3.375-.28 20.184 20.184 0 00-7.594 3.653zM39.695 23.653a29.284 29.284 0 0118.703.844 27.478 27.478 0 00-18.63-1.257c-.002.286-.073.143-.073.413z" fill="#EBEFFF"/>
    <defs>
        <linearGradient id="paint0_linear" x1="23.735" y1="17.61" x2="41.667" y2="77.326" gradientUnits="userSpaceOnUse">
            <stop stop-color="#8A9FE0"/>
            <stop offset=".588" stop-color="#7182B8"/>
            <stop offset="1" stop-color="#576490"/>
        </linearGradient>
    </defs>
</svg>