<svg fill="none"
    xmlns="http://www.w3.org/2000/svg" viewBox="0 0 91 90">
    <path fill-rule="evenodd" clip-rule="evenodd" d="M1.518 39.485c0 .494.145.82.227 1.137.531 2.063 1.674 3.832 3.03 5.447 1.93 2.3 4.295 4.152 6.717 5.894 2.101 1.51 4.245 2.987 6.354 4.486.362.257.705.553 1.098.869-.338.183-.62.344-.912.492-2.784 1.412-5.462 2.995-7.93 4.912-1.488 1.156-2.927 2.385-3.943 3.99-1.635 2.582-2.214 5.332-.995 8.27.356.857.899 1.598 1.664 2.146.248.177.527.353.817.422.744.175 1.502.29 2.255.428l2.133-.001c2.358-.21 4.505-1.019 6.445-2.357 3.031-2.093 5.074-4.898 5.952-8.499.639-2.617.665-5.237-.088-7.842a8.215 8.215 0 00-.248-.713c-.092-.234-.2-.462-.326-.754l4.835-2.78.072.062c-.088.288-.181.575-.26.865-.575 2.098-.957 4.233-.82 6.41.146 2.32.794 4.493 2.152 6.431 1.099 1.568 3.716 1.626 4.883.053.414-.56.816-1.143 1.117-1.767.788-1.628 1.518-3.284 2.271-4.93l.132-.3c-.054.778-.118 1.462-.147 2.147-.045 1.07.018 2.133.384 3.15.313.87.845 1.521 1.842 1.636.682.078 1.225-.234 1.727-.63a7.3 7.3 0 001.892-2.25c1.337-2.454 2.709-4.894 3.92-7.41 1.311-2.722 2.457-5.524 3.674-8.292l.201-.49c.288 1.13.488 2.236.858 3.284.428 1.216.96 2.402 1.537 3.556.274.545.242.899-.137 1.356-1.586 1.912-3.145 3.848-4.705 5.782-.346.426-.69.861-.977 1.327a2.605 2.605 0 00-.337.96c-.094.63.296 1.24.972 1.385a6.792 6.792 0 001.904.136c2.178-.16 4.155-.925 5.903-2.22 2.265-1.678 2.992-3.967 2.443-6.68-.148-.736-.41-1.452-.666-2.162-.114-.32-.122-.544.087-.842 1.81-2.585 3.357-5.328 4.796-8.134.057-.11.115-.221.215-.34.466 2.426 1.168 4.764 2.425 6.886-.641.618-1.276 1.178-1.85 1.795-1.266 1.36-2.362 2.837-2.935 4.637-.246.777-.435 1.566-.325 2.395.17 1.287 1.225 2.124 2.491 1.83 2.71-.627 5.05-1.904 6.758-4.166 1.15-1.523 1.256-3.221.774-5-.132-.485-.29-.96-.458-1.515.669-.208 1.32-.457 1.995-.61 3.5-.8 6.964-.66 10.337.604 1.97.738 3.56 1.974 4.504 3.917 1.153 2.376.516 4.63-1.724 6.132-.209.14-.448.25-.62.425a.61.61 0 00-.145.472c.015.086.244.194.375.193.736-.006 1.333-.392 1.906-.788 1.436-.994 2.484-2.33 2.71-4.09l.044-.133-.054-1.146c-.022-.066.016-.131.01-.181-.304-2.563-1.673-4.55-3.665-6.109-2.306-1.803-5.029-2.546-7.909-2.663a17.858 17.858 0 00-6.866 1.057c-.63.228-1.256.499-1.89.754-.085-.154-.177-.302-.252-.454-.65-1.333-1.44-2.607-1.614-4.136-.124-1.086-.276-2.17-.018-3.244.248-1.032.572-2.048.876-3.067.157-.524.047-.818-.454-1.054a2.005 2.005 0 00-.553-.182 8.51 8.51 0 00-3.635.27c-.422.123-.729.36-.822.827-.054.267-.163.524-.239.788-.311 1.1-.532 2.22-1.035 3.267-1.262 2.626-2.702 5.153-4.175 7.661-.16.271-.328.537-.53.865-.517-1.083-1.069-2.054-1.236-3.193-.19-1.288-.338-2.575-.018-3.853.239-.953.55-1.889.837-2.83.136-.447.073-.682-.332-.917a1.953 1.953 0 00-.666-.26 8.187 8.187 0 00-3.765.309c-.382.124-.582.37-.699.764-.343 1.162-.635 2.351-1.117 3.456-1.95 4.472-3.957 8.92-5.962 13.368-.418.93-.908 1.826-1.38 2.73-.12.23-.294.431-.443.646-.12-.141-.166-.238-.165-.335.003-.572-.065-1.16.044-1.713.33-1.672.71-3.335 1.11-4.992.33-1.368.715-2.723 1.081-4.083.123-.455.125-.88-.202-1.262-.549-.64-1.697-.782-2.377-.288l-.301.17.058-.485c.144-1.04.173-2.076-.113-3.1-.356-1.278-1.267-2.012-2.592-1.972-.617.02-1.265.125-1.837.35-2.404.942-4.252 2.61-5.826 4.618a1.822 1.822 0 01-.532.46c-2.034 1.128-4.075 2.241-6.115 3.36l-2.27 1.243c-.609-.58-1.162-1.183-1.79-1.694-1.918-1.564-3.866-3.09-5.797-4.635-1.711-1.37-3.37-2.798-4.638-4.613-.943-1.35-1.551-2.827-1.61-4.496-.074-2.127.53-4.07 1.613-5.88 1.385-2.314 3.274-4.172 5.351-5.855 2.197-1.779 4.574-3.289 7.037-4.668 3.446-1.928 6.99-3.636 10.79-4.763 3.898-1.156 7.851-1.817 11.93-1.356 1.602.181 3.16.548 4.589 1.332 1.094.6 1.992 1.386 2.41 2.613.412 1.208.4 2.432.114 3.66-.58 2.484-1.94 4.532-3.653 6.363-2.808 3-6.234 5.042-10.09 6.392a27.76 27.76 0 01-6.867 1.464c-1.918.161-3.797-.009-5.614-.676-1.203-.443-2.25-1.119-3.093-2.1-.15-.176-.343-.367-.624-.202-.275.161-.323.423-.231.688.154.44.296.899.536 1.292.602.988 1.481 1.705 2.449 2.32 1.858 1.181 3.935 1.579 6.089 1.67 3.268.142 6.457-.346 9.6-1.223 4.488-1.251 8.39-3.462 11.52-6.95 2.606-2.903 4.467-6.18 4.866-10.138.195-1.931-.013-3.823-.917-5.585-.98-1.91-2.54-3.329-4.405-4.307-2.715-1.424-5.646-2.253-8.67-2.253h-3.031c-3.664 0-7.205 1.05-10.648 2.302a73.115 73.115 0 00-7.641 3.307c-5.402 2.7-10.433 5.954-14.566 10.43-2.058 2.229-3.801 4.69-4.804 7.586a28.475 28.475 0 00-.781 2.634l-.061 1.273zm19.635 24.049c-.234 3.135-1.655 5.677-3.977 7.735-1.307 1.158-2.805 1.982-4.55 2.271-.633.105-1.28.13-1.895-.132-.875-.374-1.071-1.15-1.088-1.978-.026-1.32.436-2.512 1.07-3.647.826-1.479 2.038-2.607 3.333-3.66 2.039-1.66 4.251-3.065 6.516-4.391l.171-.07c.35 1.293.517 2.57.42 3.872zm17.69-13.626a23.664 23.664 0 01-.665 2.973c-1.011 3.36-2.31 6.614-3.714 9.825-.26.594-.637 1.136-.965 1.7-.051.087-.126.162-.2.234-.406.402-.791.38-.996-.144-.24-.61-.386-1.264-.513-1.91-.085-.434-.065-.89-.091-1.334.027-3.16.99-6.031 2.626-8.705.675-1.102 1.409-2.153 2.53-2.85a4.408 4.408 0 011.122-.497c.597-.168.964.109.865.708zM50.91 65.284l4.337-5.065c.181 1.881-3.016 5.636-4.337 5.065zm13.853-3.408c-.306.175-.64.302-.954.465-.288.148-.383-.002-.391-.25a1.678 1.678 0 01.065-.506c.586-2.066 1.664-3.83 3.267-5.264l.113-.058c.763 2.134-.119 4.478-2.1 5.613z" fill="#CB6699"/>
</svg>