<svg fill="none"
    xmlns="http://www.w3.org/2000/svg" viewBox="0 0 91 60">
    <g clip-path="url(#clip0)">
        <path d="M23.16 21.22c3-11.706 10.5-17.56 22.5-17.56 18 0 20.25 13.17 29.25 15.365 6 1.464 11.25-.731 15.75-6.584-3 11.706-10.5 17.56-22.5 17.56-18 0-20.25-13.17-29.25-15.366-6-1.463-11.25.732-15.75 6.585zM.66 47.56C3.66 35.853 11.16 30 23.16 30c18 0 20.25 13.17 29.25 15.365 6 1.463 11.25-.732 15.75-6.585-3 11.707-10.5 17.56-22.5 17.56-18 0-20.25-13.17-29.25-15.365-6-1.463-11.25.732-15.75 6.585z" fill="#44A8B3"/>
    </g>
    <defs>
        <clipPath id="clip0">
            <path fill="#fff" transform="translate(.66 .734)" d="M0 0h90v58.532H0z"/>
        </clipPath>
    </defs>
</svg>