<svg fill="none"
    xmlns="http://www.w3.org/2000/svg" viewBox="0 0 90 90">
    <path d="M0 45v45h90V0H0v45z" fill="#007ACC"/>
    <path d="M19.902 45.299l-.028 3.685h11.714V82.27h8.286V48.984H51.59V45.37c0-2-.043-3.671-.1-3.714-.043-.057-7.172-.086-15.815-.072l-15.728.043-.043 3.671zM72.621 41.522c2.286.572 4.029 1.586 5.629 3.243.829.886 2.057 2.5 2.157 2.886.028.114-3.886 2.743-6.257 4.214-.086.057-.429-.314-.815-.886-1.157-1.685-2.37-2.414-4.228-2.542-2.728-.186-4.486 1.242-4.471 3.628 0 .7.1 1.114.385 1.686.6 1.243 1.715 1.986 5.215 3.5 6.442 2.772 9.2 4.6 10.914 7.2 1.914 2.9 2.343 7.529 1.043 10.971-1.429 3.743-4.971 6.286-9.958 7.129-1.542.271-5.2.228-6.857-.071-3.614-.643-7.042-2.429-9.157-4.772-.828-.914-2.443-3.3-2.342-3.471.042-.057.414-.286.828-.529.4-.228 1.914-1.1 3.343-1.928l2.586-1.5.542.8c.758 1.157 2.415 2.742 3.415 3.27 2.87 1.515 6.814 1.3 8.757-.442.828-.757 1.171-1.543 1.171-2.7 0-1.043-.129-1.5-.671-2.285-.7-1-2.129-1.844-6.186-3.6-4.643-2-6.643-3.243-8.471-5.215-1.057-1.143-2.058-2.971-2.472-4.5-.343-1.271-.429-4.457-.157-5.743.957-4.486 4.343-7.614 9.229-8.543 1.585-.3 5.27-.185 6.828.2z" fill="#fff"/>
</svg>