<svg fill="none"
    xmlns="http://www.w3.org/2000/svg" viewBox="0 0 125 90">
    <g clip-path="url(#clip0)">
        <path d="M121.975 34.296c-2.805-1.946-9.232-2.676-14.256-1.703-.584-4.865-3.272-9.121-7.946-12.891l-2.687-1.946-1.87 2.797c-2.337 3.649-3.506 8.757-3.155 13.622.116 1.702.7 4.742 2.453 7.418-1.635.973-5.024 2.19-9.464 2.19H.567l-.234.972c-.818 4.865-.818 20.067 8.764 31.742 7.245 8.878 17.995 13.378 32.134 13.378 30.614 0 53.283-14.716 63.917-41.35 4.207.122 13.204 0 17.762-9.121.116-.244.35-.73 1.168-2.554l.467-.973-2.57-1.581zM68.106 0H55.253v12.162h12.853V0zm0 14.594H55.253v12.162h12.853V14.594zm-15.19 0H40.063v12.162h12.852V14.594zm-15.191 0H24.871v12.162h12.854V14.594zm-15.19 14.594H9.68V41.35h12.853V29.188zm15.19 0H24.871V41.35h12.854V29.188zm15.19 0H40.064V41.35h12.852V29.188zm15.191 0H55.253V41.35h12.853V29.188zm15.191 0H70.443V41.35h12.854V29.188z" fill="#2396ED"/>
    </g>
    <defs>
        <clipPath id="clip0">
            <path fill="#fff" d="M0 0h124.55v90H0z"/>
        </clipPath>
    </defs>
</svg>