<svg fill="none"
    xmlns="http://www.w3.org/2000/svg" viewBox="0 0 90 90">
    <path d="M21.63 54.779h-1.224v-7.006c0-.553.036-1.227.1-2.021h-.026c-.116.465-.22.801-.313 1.01l-3.558 8.017h-.597l-3.565-7.96c-.1-.221-.205-.58-.311-1.067h-.027c.038.417.059 1.095.059 2.035v6.992h-1.18V44.346h1.614l3.2 7.275c.242.548.398.965.474 1.25h.05c.209-.571.375-1 .5-1.28l3.27-7.245h1.532V54.78h.001zM25.396 54.778h-1.19v-7.45h1.19v7.45zm.205-10.12c0 .22-.077.402-.23.553a.756.756 0 01-.555.226.77.77 0 01-.55-.218.744.744 0 01-.226-.562c0-.215.075-.399.226-.548a.756.756 0 01.55-.22c.218 0 .405.072.554.22a.74.74 0 01.231.548M32.83 54.434c-.572.35-1.253.525-2.041.525-1.069 0-1.928-.355-2.585-1.063-.638-.688-.959-1.575-.959-2.662 0-1.22.349-2.209 1.053-2.96.7-.751 1.64-1.127 2.825-1.127.647 0 1.221.127 1.724.379v1.224c-.556-.39-1.144-.584-1.776-.584-.758 0-1.376.265-1.854.793-.498.541-.75 1.264-.75 2.167 0 .866.23 1.553.688 2.06.459.503 1.07.756 1.843.756.65 0 1.261-.215 1.832-.64v1.132zM38.521 48.537c-.21-.161-.512-.24-.911-.24-.484 0-.892.217-1.221.654-.374.488-.56 1.165-.56 2.03v3.797h-1.193v-7.45h1.193v1.536h.029c.175-.543.446-.962.807-1.258.337-.271.72-.408 1.141-.408.318 0 .553.034.715.102V48.537zM45.167 51.067c0-.954-.215-1.683-.646-2.182-.417-.48-1.002-.72-1.754-.72-.741 0-1.336.242-1.781.728-.47.52-.704 1.252-.704 2.204 0 .891.222 1.591.675 2.09.448.502 1.052.754 1.81.754.784 0 1.384-.256 1.796-.763.403-.498.604-1.2.604-2.111zm1.222-.042c0 1.187-.335 2.141-1.003 2.855-.67.718-1.573 1.077-2.708 1.077-1.118 0-2.008-.359-2.66-1.077-.64-.69-.961-1.605-.961-2.74 0-1.297.362-2.295 1.09-3.005.675-.658 1.576-.989 2.705-.989 1.111 0 1.979.347 2.605 1.033.62.689.932 1.638.932 2.846M52.303 52.786c0 .61-.227 1.114-.684 1.518-.498.436-1.183.654-2.045.654-.704 0-1.322-.148-1.847-.449v-1.282c.583.474 1.229.713 1.936.713.944 0 1.418-.348 1.418-1.04a.922.922 0 00-.313-.72c-.21-.19-.618-.417-1.223-.684-.624-.273-1.069-.554-1.331-.844-.315-.346-.473-.794-.473-1.347 0-.618.247-1.132.735-1.542.49-.412 1.12-.617 1.892-.617.592 0 1.122.115 1.593.35v1.2a2.813 2.813 0 00-1.69-.531c-.396 0-.713.098-.949.29a.928.928 0 00-.359.75c0 .33.1.587.3.771.176.17.552.377 1.118.618.636.267 1.095.543 1.375.826.364.357.547.812.547 1.366M59.592 51.067c0-.954-.216-1.683-.647-2.182-.417-.48-1.002-.72-1.753-.72-.742 0-1.336.242-1.783.728-.47.52-.703 1.252-.703 2.204 0 .891.224 1.591.67 2.09.455.502 1.06.754 1.816.754.785 0 1.384-.256 1.796-.763.402-.498.604-1.2.604-2.111zm1.225-.042c0 1.187-.338 2.141-1.007 2.855-.668.718-1.57 1.077-2.706 1.077-1.12 0-2.009-.359-2.662-1.077-.64-.69-.96-1.605-.96-2.74 0-1.297.366-2.295 1.09-3.005.674-.658 1.576-.989 2.706-.989 1.112 0 1.978.347 2.602 1.033.62.689.937 1.638.937 2.846M66.071 44.797a1.601 1.601 0 00-.791-.195c-.836 0-1.25.525-1.25 1.578v1.148h1.746v1.011H64.03v6.44h-1.194v-6.44H61.57v-1.01h1.267V46.12c0-.82.251-1.463.763-1.927.437-.403.972-.602 1.609-.602.368 0 .655.044.863.13v1.075zM70.778 54.704c-.282.16-.657.24-1.12.24-1.301 0-1.951-.732-1.951-2.199V48.34h-1.278v-1.012h1.278V45.51c.381-.12.777-.25 1.195-.386v2.204h1.876v1.012h-1.876v4.204c0 .499.082.856.253 1.063.172.215.454.32.851.32.298 0 .554-.08.772-.24v1.017zM6.313 83.856c0 .585-.208 1.089-.63 1.515-.419.425-.928.64-1.525.64a1.985 1.985 0 01-1.488-.64 2.116 2.116 0 01-.61-1.515c0-.6.203-1.107.61-1.526.407-.421.904-.63 1.488-.63a2.06 2.06 0 011.525.637c.422.427.63.933.63 1.52M33.014 85.572h-3.89L15.006 63.769a9.992 9.992 0 01-.856-1.717h-.116c.101.585.152 1.838.152 3.757v19.763H10.98V58.218h4.162l13.695 21.46c.545.851.918 1.461 1.108 1.829h.075c-.126-.787-.192-2.129-.192-4.022V58.219h3.186v27.353zM53.568 85.572H39.07V58.218H52.94v2.9H42.274v9.098h9.882v2.9h-9.882v9.556h11.294v2.9zM75.558 61.117h-7.88v24.456h-3.204V61.117h-7.895v-2.9h18.979v2.9z" fill="#000"/>
    <path d="M31.927 10.972c3.093 9.458 4.264 26.33 13.309 26.33.688 0 1.384-.066 2.082-.2-8.221-1.917-9.196-18.606-14.213-27.248-.394.357-.784.73-1.178 1.118" fill="url(#paint0_linear)"/>
    <path d="M33.105 9.854c5.017 8.643 5.992 25.331 14.213 27.249a13.033 13.033 0 001.943-.525c-7.38-3.616-9.42-19.822-15.118-27.625a35.65 35.65 0 00-1.038.9" fill="url(#paint1_linear)"/>
    <path d="M40.334 4.714c-.687 0-1.384.067-2.084.2-1.83.345-3.689 1.133-5.563 2.326.511.506 1 1.084 1.457 1.714 1.906-1.58 3.8-2.75 5.686-3.453.708-.262 1.414-.459 2.122-.589a6.491 6.491 0 00-1.618-.198" fill="#14559A"/>
    <path d="M55.02 33.245a33.08 33.08 0 002.27-1.989c-3.143-9.414-4.268-26.528-13.376-26.528-.65 0-1.308.06-1.963.182 8.296 2.063 9.358 20.113 13.07 28.335z" fill="url(#paint2_linear)"/>
    <path d="M41.95 4.91a6.525 6.525 0 00-1.617-.197l3.582.013c-.652 0-1.309.06-1.964.184z" fill="#3092C4"/>
    <path d="M54.862 35.245a13.47 13.47 0 01-1.027-1.11c-1.532 1.085-3.06 1.907-4.575 2.443.54.264 1.105.46 1.706.58.465.096.947.145 1.453.145 1.702 0 3.047-.201 4.193-.75a7.931 7.931 0 01-1.75-1.308" fill="#1969BC"/>
    <path d="M39.83 5.502c7.43 3.887 8.076 21.488 14.005 28.634.398-.28.791-.577 1.184-.89-3.711-8.223-4.772-26.274-13.067-28.336-.708.132-1.415.329-2.123.592" fill="url(#paint3_linear)"/>
    <path d="M34.143 8.954c5.697 7.802 7.737 24.008 15.117 27.625 1.517-.536 3.043-1.359 4.575-2.444-5.93-7.145-6.576-24.746-14.006-28.633-1.887.702-3.78 1.87-5.686 3.452" fill="url(#paint4_linear)"/>
    <path d="M28.281 10.744c-.893 2.019-1.805 4.673-2.908 8.138 2.192-3.09 4.38-5.753 6.553-7.91-.3-.921-.62-1.77-.967-2.526a32.685 32.685 0 00-2.678 2.298" fill="url(#paint5_linear)"/>
    <path d="M31.751 7.864c-.262.188-.527.38-.791.582.347.757.667 1.605.967 2.526.395-.386.787-.761 1.179-1.118a15.94 15.94 0 00-1.355-1.99z" fill="#2B74B1"/>
    <path d="M32.686 7.24c-.312.197-.622.405-.936.623.486.599.933 1.267 1.356 1.992.346-.314.692-.615 1.037-.902a13.757 13.757 0 00-1.457-1.714" fill="#125A9E"/>
    <path d="M83.37 3.994c-4.202 16.207-12.98 29.225-20.339 32.507h-.014l-.398.17-.047.018-.114.044-.05.021-.184.065-.076.026-.091.03-.089.032-.078.026-.157.047-.067.018-.106.029-.072.02-.115.029-.142.03c.333.124.68.186 1.053.186 6.978 0 14.015-12.506 25.656-33.302h-4.57v.004z" fill="url(#paint6_linear)"/>
    <path d="M23.858 5.372l.012-.012.017-.01h.009l.113-.044.023-.011.028-.013.122-.044h.006l.268-.093.04-.01.115-.035.053-.017.115-.035.044-.01.383-.1.053-.013.112-.021.056-.017.112-.021h.026l.233-.044h.047l.107-.018.06-.011.104-.016.057-.01.251-.023a8.015 8.015 0 00-.743-.038c-7.859 0-18.686 14.582-23.564 33.465h.94a272.988 272.988 0 004.245-7.89C10.719 16.907 17.676 7.785 23.856 5.369" fill="url(#paint7_linear)"/>
    <path d="M28.281 10.744a32.825 32.825 0 012.678-2.298 12.587 12.587 0 00-.638-1.233c-.719.873-1.375 2.023-2.04 3.53" fill="#0D82CA"/>
    <path d="M28.927 5.482c.514.43.973 1.023 1.394 1.732.132-.163.266-.313.406-.455a7.94 7.94 0 00-1.899-1.328l.084.04.015.011z" fill="#0D82CA"/>
    <path d="M7.304 30.285c7.165-13.81 10.56-22.549 16.554-24.914-6.18 2.418-13.139 11.54-16.554 24.914" fill="url(#paint8_linear)"/>
    <path d="M30.727 6.76c-.14.143-.272.292-.407.454.225.377.435.787.64 1.233.264-.204.528-.395.79-.583a10.79 10.79 0 00-1.023-1.104" fill="#127BCA"/>
    <path d="M10.557 38.111l-.13.016h-.024l-.11.011h-.02l-.262.018h-.028c7.252-.203 10.568-3.834 12.214-9.102 1.25-3.992 2.276-7.356 3.176-10.178-3.037 4.276-6.09 9.373-9.157 15.083-1.48 2.752-3.73 3.901-5.659 4.147" fill="url(#paint9_linear)"/>
    <path d="M10.558 38.108c1.929-.246 4.179-1.394 5.658-4.147 3.068-5.708 6.122-10.807 9.156-15.083 1.105-3.466 2.016-6.118 2.91-8.137-6.05 5.758-12.122 15.332-17.724 27.365" fill="url(#paint10_linear)"/>
    <path d="M7.304 30.285a274.249 274.249 0 01-4.246 7.89h2.734c.361-2.765.875-5.401 1.511-7.888" fill="#05A1E6"/>
    <path d="M26.174 4.775l-.058.011-.103.015-.06.01-.107.02-.047.01-.233.042h-.026l-.114.022-.057.015-.11.022-.052.012-.384.1-.044.013-.116.035-.053.013-.115.034-.042.011-.267.094-.12.042-.051.021-.113.042-.037.019C17.873 7.743 14.477 16.482 7.312 30.29A66.516 66.516 0 005.8 38.178h.384l2.629-.01h1.205l.263-.018h.017l.11-.012h.027l.13-.015C16.167 26.09 22.24 16.517 28.289 10.759c.665-1.508 1.32-2.659 2.038-3.53-.42-.709-.879-1.303-1.392-1.733l-.015-.012-.086-.041-.084-.043-.082-.04-.098-.04-.075-.034-.16-.066-.067-.026-.118-.047-.064-.021-.164-.056h-.014l-.19-.055-.043-.013-.16-.045-.038-.01a4.88 4.88 0 00-.399-.088l-.041-.01-.173-.029-.034-.01-.204-.027h-.036l-.158-.018-.25.023" fill="url(#paint11_linear)"/>
    <path d="M66.955 12.966c-1.378 4.416-2.495 8.06-3.467 11.058 3.784-5.206 7.51-11.755 11.059-19.313-4.14 1.3-6.349 4.276-7.592 8.255" fill="url(#paint12_linear)"/>
    <path d="M63.608 36.225c-.193.098-.387.191-.577.276 7.36-3.282 16.138-16.3 20.34-32.507h-.852c-9.656 17.247-12.761 28.794-18.911 32.23" fill="url(#paint13_linear)"/>
    <path d="M58.803 34.776c1.6-1.954 2.905-5.277 4.686-10.753-2.054 2.821-4.121 5.247-6.19 7.224l-.01.018c.45 1.352.945 2.547 1.51 3.51" fill="#079AE1"/>
    <path d="M58.803 34.776c-.545.665-1.122 1.171-1.764 1.547-.14.082-.283.16-.428.229a6.2 6.2 0 002.245.708l.367.032h.022l.177.012h.599l.067-.012.133-.01h.064l.144-.016h.01l.044-.01.154-.025h.045l.172-.029h.027l.344-.073c-.95-.346-1.744-1.167-2.43-2.334" fill="#1969BC"/>
    <path d="M45.235 37.303c.689 0 1.384-.067 2.082-.202a12.893 12.893 0 001.942-.523 7.095 7.095 0 003.16.725h-7.184zM52.419 37.303c1.7 0 3.047-.202 4.192-.751.678.366 1.418.61 2.245.708l.367.031h.022l.176.012h.212-7.214z" fill="#1E5CB3"/>
    <path d="M59.634 37.303h.393l.067-.012.134-.01h.065l.143-.016h.012l.044-.01.153-.024.046-.01.173-.029h.028l.343-.073c.333.123.68.185 1.054.185l-2.653.011-.002-.012z" fill="#1D60B5"/>
    <path d="M57.292 31.266v-.012a32.953 32.953 0 01-2.27 1.99c-.394.313-.787.61-1.185.89.332.397.67.77 1.027 1.11a7.963 7.963 0 001.75 1.307c.144-.07.286-.148.426-.23.644-.375 1.22-.88 1.765-1.546-.564-.963-1.06-2.158-1.51-3.51" fill="#175FAB"/>
    <path d="M79.822 3.994h-4.286l-.679.033-.317.676c-3.547 7.558-7.274 14.107-11.058 19.314-1.778 5.474-3.084 8.796-4.685 10.751.684 1.168 1.48 1.99 2.427 2.337l.075-.016h.015l.052-.012.119-.03.07-.02.106-.028.066-.018.158-.048.079-.026.088-.032.091-.03.074-.027.185-.065.051-.019.113-.044.049-.018.397-.17h.014c.19-.084.383-.177.575-.276 6.153-3.437 9.258-14.983 18.913-32.23h-2.697l.005-.002z" fill="url(#paint14_linear)"/>
    <path d="M26.426 4.752l.044.01.112.013h.038l.204.026.035.011.172.029.043.01.398.088.036.012.16.045.044.013.189.054.014.011.166.057.063.02.119.05.067.023.158.066.077.033.095.042.085.04.083.043a7.935 7.935 0 011.9 1.329c.215-.227.44-.43.674-.612-1.276-.906-2.724-1.422-4.392-1.422-.193 0-.386.011-.583.026" fill="#7DCBEC"/>
    <path d="M30.727 6.76c.357.332.7.704 1.023 1.104.313-.218.624-.428.936-.624A9.784 9.784 0 0031.4 6.148c-.234.18-.458.385-.672.612" fill="#5EC5ED"/>
    <path d="M26.24 4.798l.582-.024c1.668 0 3.116.514 4.39 1.42 1.35-1.062 2.975-1.435 5.24-1.435H25.498l.742.04" fill="url(#paint15_linear)"/>
    <path d="M36.452 4.76c-2.26 0-3.89.372-5.24 1.434.448.316.878.681 1.286 1.09 1.874-1.193 3.734-1.981 5.565-2.33a11.28 11.28 0 012.084-.198h-3.695v.004z" fill="url(#paint16_linear)"/>
    <path d="M63.489 24.027c.973-3 2.087-6.642 3.468-11.06 1.246-3.98 3.45-6.957 7.589-8.255l.319-.677c-6.748.404-9.902 3.837-11.488 8.92C60.6 21.832 58.919 27.584 57.3 31.25c2.067-1.977 4.134-4.404 6.188-7.222z" fill="url(#paint17_linear)"/>
    <defs>
        <linearGradient id="paint0_linear" x1="39.79" y1="4.607" x2="39.79" y2="45.456" gradientUnits="userSpaceOnUse">
            <stop stop-color="#0994DC"/>
            <stop offset=".35" stop-color="#66CEF5"/>
            <stop offset=".846" stop-color="#127BCA"/>
            <stop offset="1" stop-color="#127BCA"/>
        </linearGradient>
        <linearGradient id="paint1_linear" x1="41.23" y1="3.397" x2="41.23" y2="45.395" gradientUnits="userSpaceOnUse">
            <stop stop-color="#0E76BC"/>
            <stop offset=".36" stop-color="#36AEE8"/>
            <stop offset=".846" stop-color="#00ADEF"/>
            <stop offset="1" stop-color="#00ADEF"/>
        </linearGradient>
        <linearGradient id="paint2_linear" x1="49.607" y1="36.287" x2="49.607" y2="2.956" gradientUnits="userSpaceOnUse">
            <stop stop-color="#1C63B7"/>
            <stop offset=".5" stop-color="#33BDF2"/>
            <stop offset="1" stop-color="#33BDF2" stop-opacity=".42"/>
        </linearGradient>
        <linearGradient id="paint3_linear" x1="47.363" y1="-.852" x2="47.363" y2="42.753" gradientUnits="userSpaceOnUse">
            <stop stop-color="#166AB8"/>
            <stop offset=".4" stop-color="#36AEE8"/>
            <stop offset=".846" stop-color="#0798DD"/>
            <stop offset="1" stop-color="#0798DD"/>
        </linearGradient>
        <linearGradient id="paint4_linear" x1="44.191" y1="-.55" x2="44.191" y2="45.819" gradientUnits="userSpaceOnUse">
            <stop stop-color="#124379"/>
            <stop offset=".39" stop-color="#1487CB"/>
            <stop offset=".78" stop-color="#165197"/>
            <stop offset="1" stop-color="#165197"/>
        </linearGradient>
        <linearGradient id="paint5_linear" x1="25.021" y1="13.103" x2="31.574" y2="13.103" gradientUnits="userSpaceOnUse">
            <stop stop-color="#33BDF2" stop-opacity=".698"/>
            <stop offset="1" stop-color="#1DACD8"/>
        </linearGradient>
        <linearGradient id="paint6_linear" x1="74.616" y1="35.438" x2="74.616" y2="2.884" gradientUnits="userSpaceOnUse">
            <stop stop-color="#136AB4"/>
            <stop offset=".6" stop-color="#59CAF5" stop-opacity=".549"/>
            <stop offset="1" stop-color="#59CAF5" stop-opacity=".235"/>
        </linearGradient>
        <linearGradient id="paint7_linear" x1="1.771" y1="20.88" x2="26.072" y2="20.88" gradientUnits="userSpaceOnUse">
            <stop stop-color="#05A1E6" stop-opacity=".247"/>
            <stop offset="1" stop-color="#05A1E6"/>
        </linearGradient>
        <linearGradient id="paint8_linear" x1="15.711" y1="36.31" x2="15.711" y2="3.064" gradientUnits="userSpaceOnUse">
            <stop stop-color="#318ED5"/>
            <stop offset="1" stop-color="#38A7E4"/>
        </linearGradient>
        <linearGradient id="paint9_linear" x1="17.573" y1="36.415" x2="17.573" y2="4.014" gradientUnits="userSpaceOnUse">
            <stop stop-color="#05A1E6"/>
            <stop offset="1" stop-color="#05A1E6" stop-opacity=".549"/>
        </linearGradient>
        <linearGradient id="paint10_linear" x1="19.524" y1="38.169" x2="19.524" y2="10.79" gradientUnits="userSpaceOnUse">
            <stop stop-color="#1959A6"/>
            <stop offset=".5" stop-color="#05A1E6"/>
            <stop offset=".918" stop-color="#7EC5EA"/>
            <stop offset="1" stop-color="#7EC5EA"/>
        </linearGradient>
        <linearGradient id="paint11_linear" x1="20.415" y1="36.329" x2="15.194" y2="6.719" gradientUnits="userSpaceOnUse">
            <stop stop-color="#165096"/>
            <stop offset="1" stop-color="#0D82CA"/>
        </linearGradient>
        <linearGradient id="paint12_linear" x1="68.876" y1="19.532" x2="68.876" y2="4.017" gradientUnits="userSpaceOnUse">
            <stop stop-color="#05A1E6"/>
            <stop offset=".874" stop-color="#0495D6"/>
            <stop offset="1" stop-color="#0495D6"/>
        </linearGradient>
        <linearGradient id="paint13_linear" x1="76.385" y1="2.742" x2="70.093" y2="38.424" gradientUnits="userSpaceOnUse">
            <stop stop-color="#38A7E4" stop-opacity=".329"/>
            <stop offset=".962" stop-color="#0E88D3"/>
            <stop offset="1" stop-color="#0E88D3"/>
        </linearGradient>
        <linearGradient id="paint14_linear" x1="70.48" y1="3.938" x2="70.48" y2="37.696" gradientUnits="userSpaceOnUse">
            <stop stop-color="#168CD4"/>
            <stop offset=".5" stop-color="#1C87CC"/>
            <stop offset="1" stop-color="#154B8D"/>
        </linearGradient>
        <linearGradient id="paint15_linear" x1="25.747" y1=".949" x2="65.103" y2="17.272" gradientUnits="userSpaceOnUse">
            <stop stop-color="#97D6EE"/>
            <stop offset=".703" stop-color="#55C1EA"/>
            <stop offset="1" stop-color="#55C1EA"/>
        </linearGradient>
        <linearGradient id="paint16_linear" x1="32.617" y1="9.946" x2="63.7" y2="-4.146" gradientUnits="userSpaceOnUse">
            <stop stop-color="#7ACCEC"/>
            <stop offset="1" stop-color="#3FB7ED"/>
        </linearGradient>
        <linearGradient id="paint17_linear" x1="65.947" y1="5.729" x2="65.947" y2="38.833" gradientUnits="userSpaceOnUse">
            <stop stop-color="#1DA7E7"/>
            <stop offset="1" stop-color="#37ABE7" stop-opacity="0"/>
        </linearGradient>
    </defs>
</svg>