<svg fill="none"
    xmlns="http://www.w3.org/2000/svg" viewBox="0 0 90 90">
    <g clip-path="url(#clip0)">
        <path d="M89.95 20.325c.033.12.05.243.05.367v19.285c0 .504-.278.969-.729 1.22l-16.69 9.319v18.47c0 .248-.068.49-.195.704-.127.215-.31.393-.53.517l-34.843 19.45c-.08.043-.167.071-.254.101-.033.01-.064.03-.098.039-.244.062-.5.062-.743 0-.04-.01-.077-.032-.114-.046-.08-.028-.164-.053-.24-.095L.73 70.206a1.43 1.43 0 01-.533-.515A1.375 1.375 0 010 68.986V11.133c0-.127.018-.25.05-.37.012-.04.037-.077.052-.117.027-.074.052-.15.092-.218.027-.046.067-.083.1-.125.041-.056.08-.114.128-.164.042-.04.097-.07.144-.105.052-.042.1-.088.159-.121h.002L18.145.188a1.489 1.489 0 011.45 0l17.419 9.725h.003c.058.035.108.079.16.12.047.034.1.066.141.105.051.05.088.11.13.165.032.042.074.08.099.125.041.07.065.144.094.218.015.04.04.077.05.12.034.119.051.243.052.367v36.134l14.514-8.104V20.69c0-.123.019-.248.051-.366.013-.042.036-.08.05-.12.03-.073.055-.15.095-.217.027-.046.067-.083.098-.125.043-.056.08-.114.13-.164.043-.04.095-.07.142-.105.054-.043.102-.088.16-.122h.001l17.42-9.724a1.487 1.487 0 011.45 0l17.42 9.724c.06.035.108.08.162.12.045.035.098.067.14.105.05.052.087.11.13.166.033.042.073.079.099.125.041.068.065.144.093.218.017.04.04.077.051.119zm-2.854 18.838V23.127l-6.095 3.402-8.421 4.702v16.036l14.518-8.104h-.002zm-17.418 29.01V52.125l-8.284 4.588-23.653 13.09v16.198l31.937-17.829zM2.904 13.567v54.606L34.837 86V69.805L18.155 60.65l-.006-.004-.007-.003c-.056-.032-.103-.077-.156-.116-.045-.035-.098-.063-.137-.102l-.004-.005c-.047-.044-.08-.099-.12-.148-.036-.048-.08-.088-.109-.137l-.001-.005c-.033-.053-.053-.116-.077-.176-.023-.053-.054-.102-.069-.158v-.002c-.017-.067-.021-.137-.028-.206-.007-.052-.022-.105-.022-.158V21.672l-8.42-4.704-6.095-3.4v-.001zM18.872 3.032l-14.513 8.1 14.51 8.101 14.51-8.102-14.51-8.1h.003zm7.548 50.556l8.419-4.7V13.567l-6.095 3.403-8.422 4.701v35.321l6.098-3.404zm44.71-40.996l-14.512 8.1 14.511 8.101 14.51-8.102-14.51-8.1zm-1.452 18.64l-8.421-4.703-6.096-3.402v16.036l8.42 4.7 6.097 3.404V31.231zM36.288 67.37l21.284-11.784 10.64-5.888-14.501-8.096-16.695 9.321-15.217 8.495 14.488 7.952z" fill="#FF2D20"/>
    </g>
    <defs>
        <clipPath id="clip0">
            <path fill="#fff" d="M0 0h90v90H0z"/>
        </clipPath>
    </defs>
</svg>