<svg fill="none"
    xmlns="http://www.w3.org/2000/svg" viewBox="0 0 90 90">
    <path d="M45 89.835c-1.398 0-2.702-.33-3.913-.908l-12.391-6.52c-1.864-.907-.932-1.238-.373-1.403 2.515-.742 2.981-.907 5.59-2.228.28-.165.652-.083.931.082l9.504 5.035c.373.165.838.165 1.118 0L82.64 64.829c.373-.165.559-.496.559-.908V25.874c0-.412-.186-.742-.559-.907L45.466 5.985c-.373-.165-.839-.165-1.118 0L7.174 24.967c-.373.165-.56.578-.56.908V63.92c0 .33.187.742.56.908l10.155 5.199c5.497 2.475 8.944-.413 8.944-3.301V29.175c0-.495.466-.99 1.118-.99h4.752c.559 0 1.118.413 1.118.99v37.551c0 6.52-4.006 10.316-10.994 10.316-2.143 0-3.82 0-8.571-2.063l-9.783-4.951C1.49 68.789 0 66.478 0 64.003V25.957c0-2.476 1.49-4.786 3.913-6.024L41.087.868c2.33-1.155 5.497-1.155 7.826 0l37.174 19.065C88.51 21.17 90 23.48 90 25.957v38.046c0 2.476-1.49 4.787-3.913 6.025L48.913 89.092c-1.211.496-2.609.743-3.913.743zm11.46-26.162c-16.305 0-19.659-6.602-19.659-12.214 0-.495.466-.99 1.118-.99h4.845c.559 0 1.025.33 1.025.825.745 4.374 2.888 6.52 12.764 6.52 7.826 0 11.18-1.568 11.18-5.282 0-2.146-.932-3.714-13.137-4.787-10.155-.908-16.49-2.889-16.49-10.068 0-6.686 6.335-10.647 16.956-10.647 11.925 0 17.795 3.631 18.54 11.554 0 .248-.093.495-.28.743-.185.165-.465.33-.744.33h-4.845c-.466 0-.932-.33-1.025-.743-1.118-4.539-4.006-6.024-11.646-6.024-8.571 0-9.596 2.64-9.596 4.621 0 2.394 1.211 3.136 12.764 4.457 11.46 1.32 16.863 3.218 16.863 10.316-.093 7.263-6.8 11.389-18.634 11.389z" fill="#539E43"/>
</svg>