<svg fill="none"
    xmlns="http://www.w3.org/2000/svg" viewBox="0 0 91 90">
    <g clip-path="url(#clip0)">
        <path d="M90.47 53.893c-.539-1.585-1.952-2.689-3.78-2.954-.861-.125-1.848-.072-3.016.162-2.035.407-3.546.563-4.648.593 4.16-6.814 7.543-14.583 9.49-21.896 3.15-11.826 1.467-17.214-.5-19.65C82.812 3.698 75.22.233 66.06.127c-4.886-.058-9.175.877-11.413 1.55-2.083-.356-4.324-.555-6.674-.592-4.406-.068-8.3.863-11.626 2.778a54.346 54.346 0 00-8.21-1.999C20.109.586 13.638 1.582 8.906 4.825 3.175 8.752.518 15.574 1.01 25.102c.156 3.026 1.9 12.23 4.647 20.96 1.579 5.017 3.262 9.183 5.004 12.385 2.47 4.539 5.112 7.212 8.079 8.172 1.663.537 4.684.913 7.861-1.654.403.474.94.944 1.653 1.38a11.18 11.18 0 003.12 1.275c3.985.967 7.719.725 10.904-.63.02.55.035 1.075.047 1.528.021.736.043 1.457.07 2.131.19 4.56.509 8.105 1.456 10.585.052.136.122.344.196.565.473 1.404 1.263 3.754 3.274 5.594 2.083 1.907 4.602 2.492 6.909 2.492 1.157 0 2.26-.147 3.229-.349 3.45-.717 7.37-1.81 10.206-5.727 2.681-3.702 3.984-9.278 4.22-18.064l.086-.712.056-.464.632.053.162.011c3.516.156 7.814-.568 10.454-1.757 2.085-.939 8.77-4.362 7.196-8.983" fill="#000"/>
        <path d="M84.46 54.791c-10.452 2.092-11.17-1.34-11.17-1.34 11.035-15.885 15.648-36.047 11.667-40.982C74.097-.99 55.295 5.375 54.981 5.54l-.1.018c-2.066-.416-4.377-.663-6.974-.704-4.73-.075-8.317 1.202-11.04 3.205 0 0-33.538-13.403-31.978 16.856.332 6.437 9.511 48.707 20.46 35.94 4.003-4.67 7.87-8.617 7.87-8.617 1.92 1.237 4.22 1.869 6.63 1.642l.187-.154c-.059.58-.032 1.147.075 1.818-2.821 3.057-1.992 3.593-7.63 4.72-5.707 1.14-2.355 3.17-.166 3.702 2.653.643 8.79 1.554 12.938-4.077l-.166.643c1.105.858 1.881 5.585 1.752 9.87-.13 4.284-.217 7.226.653 9.524.871 2.297 1.74 7.467 9.152 5.927 6.194-1.288 9.404-4.624 9.85-10.19.317-3.957 1.034-3.372 1.08-6.91l.575-1.674c.663-5.363.105-7.094 3.92-6.289l.928.08c2.809.123 6.485-.44 8.642-1.412 4.646-2.091 7.401-5.583 2.82-4.666h.001" fill="#336791"/>
        <path d="M38.83 27.793c-.942-.128-1.794-.01-2.226.307a.789.789 0 00-.338.527c-.054.377.218.793.385 1.008.473.608 1.164 1.026 1.848 1.118.099.014.198.02.296.02 1.14 0 2.177-.861 2.269-1.497.114-.796-1.078-1.327-2.234-1.483M70.034 27.818c-.09-.625-1.235-.803-2.322-.656-1.085.147-2.138.622-2.05 1.248.07.486.976 1.316 2.048 1.316.091 0 .182-.005.274-.018.716-.096 1.241-.537 1.49-.79.38-.388.6-.82.56-1.1" fill="#fff"/>
        <path d="M87.938 54.554c-.398-1.169-1.681-1.545-3.813-1.118-6.327 1.267-8.594.39-9.338-.142 4.919-7.268 8.965-16.054 11.148-24.251 1.034-3.883 1.605-7.49 1.652-10.429.052-3.226-.515-5.597-1.683-7.045-4.71-5.838-11.623-8.97-19.992-9.055C60.16 2.45 55.3 3.879 54.357 4.28a29.651 29.651 0 00-6.503-.81c-4.319-.068-8.052.935-11.142 2.98a50.968 50.968 0 00-9.056-2.304c-7.335-1.145-13.164-.277-17.324 2.581-4.964 3.411-7.255 9.509-6.811 18.123.15 2.898 1.852 11.813 4.538 20.351 3.537 11.238 7.38 17.6 11.425 18.909a5.26 5.26 0 001.621.26c1.476 0 3.285-.645 5.167-2.84a182.437 182.437 0 017.12-7.816 11.75 11.75 0 005.124 1.337l.012.135c-.307.356-.609.717-.903 1.083-1.238 1.524-1.496 1.841-5.48 2.637-1.134.227-4.144.829-4.188 2.876-.048 2.236 3.558 3.175 3.97 3.275 1.431.347 2.81.519 4.126.519 3.2 0 6.015-1.02 8.265-2.994-.07 7.973.273 15.829 1.26 18.222.808 1.96 2.783 6.748 9.02 6.748.915 0 1.922-.103 3.03-.334 6.51-1.353 9.336-4.144 10.43-10.296.585-3.288 1.589-11.14 2.061-15.351.997.301 2.28.44 3.667.44 2.894 0 6.232-.597 8.326-1.54 2.352-1.06 6.596-3.659 5.826-5.918zM72.437 26.095c-.022 1.243-.198 2.372-.385 3.55-.201 1.268-.41 2.578-.462 4.168-.052 1.548.148 3.157.34 4.713.39 3.143.79 6.38-.757 9.572a12.29 12.29 0 01-.686-1.367c-.192-.452-.61-1.178-1.188-2.183-2.249-3.912-7.515-13.074-4.819-16.812.803-1.113 2.841-2.257 7.957-1.64zM66.236 5.031c7.498.16 13.429 2.882 17.628 8.087 3.22 3.992-.326 22.158-10.593 37.83a58.787 58.787 0 00-.311-.38l-.13-.158c2.653-4.25 2.134-8.455 1.672-12.184-.19-1.53-.369-2.975-.323-4.332.047-1.439.243-2.673.433-3.866.233-1.47.47-2.992.405-4.785.049-.189.068-.411.043-.675-.167-1.72-2.192-6.867-6.318-11.526-2.257-2.548-5.548-5.4-10.042-7.323a34.874 34.874 0 017.536-.688zM24.28 59.925c-2.074 2.418-3.505 1.954-3.976 1.802-3.068-.992-6.629-7.283-9.767-17.258-2.716-8.631-4.304-17.31-4.43-19.744-.396-7.697 1.528-13.061 5.718-15.944 6.82-4.69 18.032-1.883 22.537-.46-.065.063-.132.12-.196.184-7.393 7.242-7.218 19.616-7.2 20.372 0 .292.025.705.06 1.274.127 2.08.363 5.954-.27 10.34-.587 4.077.709 8.067 3.554 10.947.292.295.6.576.92.841a186.383 186.383 0 00-6.95 7.645zm7.9-10.225c-2.293-2.322-3.335-5.551-2.858-8.86.668-4.634.421-8.67.289-10.838-.019-.303-.035-.57-.045-.78 1.08-.928 6.085-3.53 9.655-2.736 1.628.362 2.62 1.438 3.034 3.288 2.135 9.58.282 13.574-1.207 16.783a30.509 30.509 0 00-.844 1.932l-.192.5c-.486 1.263-.938 2.438-1.218 3.553-2.438-.006-4.81-1.017-6.614-2.843zm.375 12.92c-.712-.172-1.353-.472-1.728-.72.313-.144.872-.339 1.84-.532 4.688-.936 5.412-1.597 6.993-3.544a30.17 30.17 0 011.342-1.569c.848-.92 1.236-.765 1.938-.482.57.229 1.125.921 1.35 1.684.107.36.226 1.043-.165 1.575-3.302 4.485-8.114 4.427-11.57 3.588zm24.53 22.143c-5.733 1.192-7.764-1.646-9.102-4.89-.863-2.095-1.288-11.54-.987-21.971a1.225 1.225 0 00-.056-.4 5.127 5.127 0 00-.16-.736c-.448-1.518-1.539-2.788-2.848-3.314-.52-.209-1.475-.593-2.622-.308.245-.978.669-2.082 1.129-3.277l.193-.503c.217-.567.49-1.154.778-1.776 1.558-3.358 3.692-7.956 1.376-18.345-.867-3.89-3.764-5.791-8.155-5.35-2.633.265-5.041 1.295-6.242 1.886-.259.127-.495.25-.715.369.335-3.92 1.601-11.248 6.34-15.883 2.983-2.919 6.956-4.36 11.797-4.282 9.539.151 15.655 4.9 19.107 8.856 2.975 3.41 4.586 6.844 5.229 8.697-4.835-.477-8.123.448-9.79 2.76-3.625 5.028 1.984 14.786 4.68 19.476.495.86.922 1.602 1.056 1.918.878 2.064 2.014 3.441 2.844 4.447.255.308.501.607.69.868-1.465.41-4.095 1.356-3.855 6.085-.194 2.372-1.568 13.481-2.267 17.406-.921 5.185-2.888 7.117-8.42 8.267zm23.936-26.57c-1.497.675-4.003 1.18-6.383 1.289-2.629.12-3.967-.286-4.282-.535-.147-2.947.983-3.255 2.18-3.58.188-.052.371-.102.549-.162.11.087.23.174.362.258 2.113 1.353 5.882 1.499 11.203.433l.058-.01c-.718.65-1.946 1.523-3.687 2.308z" fill="#fff"/>
    </g>
    <defs>
        <clipPath id="clip0">
            <path fill="#fff" transform="translate(.833)" d="M0 0h90v90H0z"/>
        </clipPath>
    </defs>
</svg>