<svg fill="none"
    xmlns="http://www.w3.org/2000/svg" viewBox="0 0 90 90">
    <path d="M44.619.025c-22.787 0-21.365 9.923-21.365 9.923l.026 10.28h21.745v3.087H14.643S.062 21.655.062 44.742c0 23.088 12.727 22.27 12.727 22.27h7.595V56.296s-.41-12.78 12.524-12.78h21.567s12.117.197 12.117-11.76V11.99S68.432.025 44.62.025zm-11.99 6.913a3.894 3.894 0 012.767 1.15 3.926 3.926 0 011.144 2.779 3.94 3.94 0 01-1.145 2.778 3.908 3.908 0 01-4.264.852 3.908 3.908 0 01-2.118-2.127 3.94 3.94 0 01-.297-1.503 3.939 3.939 0 011.145-2.78 3.908 3.908 0 012.767-1.149z" fill="url(#paint0_linear)"/>
    <path d="M45.266 89.692c22.787 0 21.364-9.923 21.364-9.923l-.025-10.28H44.859v-3.087h30.382s14.581 1.66 14.581-21.428-12.727-22.269-12.727-22.269H69.5V33.42s.41 12.78-12.524 12.78H35.41s-12.117-.197-12.117 11.76v19.77s-1.84 11.963 21.973 11.963zm11.99-6.913a3.894 3.894 0 01-2.767-1.15 3.927 3.927 0 01-1.145-2.778 3.939 3.939 0 011.145-2.78 3.907 3.907 0 014.265-.85 3.908 3.908 0 012.117 2.126 3.94 3.94 0 01-.848 4.283 3.908 3.908 0 01-2.767 1.149z" fill="url(#paint1_linear)"/>
    <defs>
        <linearGradient id="paint0_linear" x1="8.688" y1="8.09" x2="53.353" y2="52.127" gradientUnits="userSpaceOnUse">
            <stop stop-color="#387EB8"/>
            <stop offset="1" stop-color="#366994"/>
        </linearGradient>
        <linearGradient id="paint1_linear" x1="35.991" y1="36.487" x2="83.948" y2="81.635" gradientUnits="userSpaceOnUse">
            <stop stop-color="#FFE052"/>
            <stop offset="1" stop-color="#FFC331"/>
        </linearGradient>
    </defs>
</svg>