<svg fill="none"
    xmlns="http://www.w3.org/2000/svg" viewBox="0 0 90 90">
    <path d="M45 51.958a7.031 7.031 0 100-14.062 7.031 7.031 0 000 14.062z" fill="#00D8FF"/>
    <path d="M45 61.048a79.834 79.834 0 01-24.975-3.375A31.78 31.78 0 019.74 52.166a9.964 9.964 0 01-4.115-7.24c0-4.648 5.107-9.205 13.663-12.186A80.874 80.874 0 0145 28.95a80.646 80.646 0 0125.374 3.724 31.995 31.995 0 019.951 5.248 9.537 9.537 0 014.05 7.006c0 4.832-5.71 9.728-14.906 12.771A81.003 81.003 0 0145 61.048zm0-28.735a78.604 78.604 0 00-24.607 3.605c-7.875 2.748-11.404 6.506-11.404 9 0 2.61 3.794 6.714 12.124 9.563A76.529 76.529 0 0045 57.684a77.624 77.624 0 0023.414-3.178C77.062 51.64 81 47.531 81 44.926a6.545 6.545 0 00-2.84-4.423 28.671 28.671 0 00-8.89-4.652A77.236 77.236 0 0045 32.313z" fill="#00D8FF"/>
    <path d="M29.025 79.996a7.422 7.422 0 01-3.758-.923c-4.027-2.323-5.422-9.022-3.732-17.924a80.874 80.874 0 019.563-24.168 80.651 80.651 0 0115.899-20.12 31.993 31.993 0 019.517-6 9.537 9.537 0 018.095 0c4.188 2.414 5.574 9.805 3.62 19.292a81.016 81.016 0 01-9.327 22.874 79.835 79.835 0 01-15.401 19.949 31.78 31.78 0 01-9.909 6.156 13.854 13.854 0 01-4.567.864zm4.986-41.344a78.606 78.606 0 00-9.168 23.116c-1.556 8.198-.062 13.129 2.11 14.383 2.25 1.302 7.71.068 14.343-5.726a76.524 76.524 0 0014.7-19.097 77.623 77.623 0 008.947-21.87c1.84-8.93.25-14.397-2.005-15.696a6.543 6.543 0 00-5.254.25 28.672 28.672 0 00-8.465 5.394A77.245 77.245 0 0034.03 38.67l-.02-.017z" fill="#00D8FF"/>
    <path d="M60.967 80.033c-3.811 0-8.651-2.307-13.691-6.64a80.877 80.877 0 01-16.164-20.355 80.65 80.65 0 01-9.49-23.824 31.997 31.997 0 01-.444-11.25 9.537 9.537 0 014.034-6.995c4.182-2.422 11.278.067 18.52 6.497a81 81 0 0115.16 19.502 79.829 79.829 0 019.59 23.307c.847 3.83.977 7.783.385 11.66a9.964 9.964 0 01-4.202 7.186 7.285 7.285 0 01-3.698.912zM34.023 51.345A78.608 78.608 0 0049.47 70.833c6.326 5.442 11.343 6.612 13.5 5.344 2.25-1.308 3.91-6.646 2.2-15.284a76.53 76.53 0 00-9.2-22.25 77.622 77.622 0 00-14.47-18.674c-6.818-6.053-12.347-7.406-14.6-6.1a6.544 6.544 0 00-2.405 4.674 28.67 28.67 0 00.43 10.026 77.245 77.245 0 009.102 22.782l-.003-.006z" fill="#00D8FF"/>
</svg>