<svg fill="none" xmlns="http://www.w3.org/2000/svg" viewBox="0 0 513 513">
  <circle cx="256.166" cy="256.002" r="255" stroke="#33BDF2" stroke-opacity=".42" stroke-width="2"/>
  <path d="M173.499 337.378a165.882 165.882 0 003.56-7.646 105.053 105.053 0 003.428-9.361l3.559-8.701a239.093 239.093 0 01-4.878-7.646 111.913 111.913 0 01-4.35-8.57 70.138 70.138 0 01-3.296-8.701c-.791-2.9-1.187-5.713-1.187-8.437 0-.176.659-.308 1.978-.396 1.406-.175 3.12-.307 5.141-.395a161.74 161.74 0 016.724-.132c2.461-.088 4.702-.132 6.724-.132a128.55 128.55 0 015.141-.132l2.11-.132a779.114 779.114 0 015.932-15.029c1.934-4.746 3.867-9.536 5.801-14.37 1.934-4.834 3.867-9.756 5.801-14.766a427.38 427.38 0 005.801-16.347c3.691-10.899 7.294-20.479 10.81-28.74a4577.09 4577.09 0 019.888-23.072c.351-.879.923-1.67 1.714-2.373a14.546 14.546 0 012.768-1.977 25.89 25.89 0 012.769-1.319 99.113 99.113 0 012.241-.791c.352-.088 1.67-.483 3.955-1.186 2.373-.703 5.054-1.45 8.042-2.241a182.387 182.387 0 018.833-2.11c2.988-.615 5.361-.923 7.119-.923H282c1.406 0 2.725.352 3.955 1.055 1.319.615 2.198 1.89 2.637 3.823 4.219 10.811 8.701 22.632 13.447 35.464 4.834 12.744 9.536 26.807 14.107 42.188a1145.444 1145.444 0 007.251 23.466c2.373 7.383 4.746 14.59 7.119 21.621l7.119 21.094a2917.77 2917.77 0 017.515 21.753c.791 3.164 1.582 5.669 2.373 7.515.879 1.846 1.67 3.296 2.373 4.35.703 1.055 1.274 1.846 1.714 2.373.439.44.659.923.659 1.451 0 .527-.835 1.054-2.505 1.582l-28.345 9.228a520.263 520.263 0 01-6.46 2.373 176.375 176.375 0 01-6.196 2.11c-1.934.615-3.648 1.098-5.142 1.45-1.406.439-2.417.659-3.032.659h-.791c-1.23 0-2.109-.396-2.637-1.187-.527-.703-.879-1.406-1.054-2.109-.879-2.9-1.758-5.493-2.637-7.778a605.357 605.357 0 00-2.637-6.988l-2.505-7.514c-.791-2.637-1.582-5.757-2.373-9.361-.175-.439-.659-.791-1.45-1.054-.791-.352-1.758-.615-2.9-.791a20.867 20.867 0 00-3.428-.264 48.252 48.252 0 00-3.428-.132c-3.34 0-6.064.044-8.174.132-2.021 0-3.823.044-5.405.132-1.582 0-3.12.044-4.614.132H243.372c-2.636-.088-5.053-.176-7.251-.264l-7.514-.264a425.615 425.615 0 01-6.856 17.798 630.64 630.64 0 01-7.383 17.139c-.175.703-.615 1.274-1.318 1.714-.615.439-1.274.659-1.977.659-.528 0-.835-.044-.923-.132-8.526-3.076-15.689-6.108-21.49-9.097-5.8-2.988-10.854-5.888-15.161-8.701zm88.858-118.52c-2.11 7.822-4.219 14.941-6.328 21.357-2.022 6.328-3.912 11.953-5.669 16.875a769.544 769.544 0 01-4.351 12.525c-1.23 3.339-2.109 5.932-2.637 7.778v1.186c0 .528-.044.879-.132 1.055h31.641a400.61 400.61 0 00-3.164-13.052 685.097 685.097 0 01-3.164-13.842 599 599 0 01-3.164-15.557c-1.055-5.537-2.066-11.646-3.032-18.325z" fill="url(#paint0_linear)"/>
  <path d="M173.499 337.378l-4.472-2.236-1.993 3.986 3.731 2.437 2.734-4.187zm3.56-7.646l4.581 2.004.011-.026.011-.025-4.603-1.953zm3.428-9.361l-4.628-1.893-.078.191-.062.197 4.768 1.505zm3.559-8.701l4.628 1.893 1.005-2.457-1.473-2.209-4.16 2.773zm-4.878-7.646l-4.358 2.451.046.082.049.08 4.263-2.613zm-7.646-17.271l-4.824 1.316.018.067.021.067 4.785-1.45zm.791-8.833l.332 4.989.145-.009.143-.018-.62-4.962zm5.141-.395l-.208-4.996h-.009l.217 4.996zm6.724-.132v5h.089l.089-.003-.178-4.997zm6.724-.132v5h.104l.104-.004-.208-4.996zm5.141-.132v5h.156l.156-.009-.312-4.991zm2.11-.132l.311 4.991 3.207-.201 1.15-3-4.668-1.79zm17.534-44.165l4.664 1.801.006-.014.005-.013-4.675-1.774zm5.801-16.347l-4.736-1.604-.004.011-.004.012 4.744 1.581zm20.698-51.812l4.59 1.983.027-.062.025-.064-4.642-1.857zm1.714-2.373l3.321 3.737.012-.01.011-.01-3.344-3.717zm5.537-3.296l-1.709-4.699-.075.027-.073.03 1.857 4.642zm2.241-.791l-1.213-4.85-.186.046-.182.061 1.581 4.743zm3.955-1.186l-1.42-4.794-.025.007-.025.008 1.47 4.779zm16.875-4.351l-1.008-4.897-.015.003-.014.003 1.037 4.891zm13.447.132l-2.48 4.341.179.103.187.087 2.114-4.531zm2.637 3.823l-4.876 1.108.083.363.135.347 4.658-1.818zm13.447 35.464l-4.689 1.735.007.019.007.019 4.675-1.773zm14.107 42.188l-4.793 1.424.001.003 4.792-1.427zm21.489 66.181l-4.737 1.599.008.027.01.026 4.719-1.652zm7.515 21.753l4.85-1.213-.05-.203-.068-.198-4.732 1.614zm2.373 7.515l-4.596 1.969.039.091.042.089 4.515-2.149zm4.087 6.723l-3.841 3.201.145.175.16.16 3.536-3.536zm-1.846 3.033l-1.506-4.768-.021.006-.021.007 1.548 4.755zm-28.345 9.228l-1.548-4.754-.104.034-.103.039 1.755 4.681zm-17.798 5.933l-1.145-4.867-.175.041-.171.053 1.491 4.773zm-6.46-.528l4.161-2.773-.077-.116-.084-.111-4 3zm-1.054-2.109l4.85-1.213-.029-.119-.036-.118-4.785 1.45zm-2.637-7.778l-4.689 1.736.011.03.011.029 4.667-1.795zm-2.637-6.988l-4.743 1.582.036.107.041.106 4.666-1.795zm-2.505-7.514l-4.789 1.437.022.072.024.072 4.743-1.581zm-2.373-9.361l4.884-1.072-.088-.402-.153-.382-4.643 1.856zm-1.45-1.054l-2.031 4.569.221.098.229.076 1.581-4.743zm-2.9-.791l-.822 4.932.031.005.03.005.761-4.942zm-3.428-.264l-.356 4.987.178.013h.178v-5zm-11.602 0v5h.105l.104-.004-.209-4.996zm-5.405.132v5h.139l.139-.008-.278-4.992zm-4.614.132v5h.147l.147-.009-.294-4.991zm-13.184 0l-.166 4.997.083.003h.083v-5zm-7.251-.264l.2-4.996h-.012l-.012-.001-.176 4.997zm-7.514-.264l.175-4.997-3.641-.127-1.237 3.426 4.703 1.698zm-14.239 34.937l-4.563-2.043-.18.402-.107.428 4.85 1.213zm-1.318 1.714l-2.65-4.24-.131.082-.125.089 2.906 4.069zm-2.9.527l3.535-3.535-.789-.789-1.049-.379-1.697 4.703zm52.207-136.318l4.948-.716-9.776-.586 4.828 1.302zm-6.328 21.357l-4.75-1.561-.007.02-.006.02 4.763 1.521zm-5.669 16.875l-4.709-1.681-.013.037-.013.038 4.735 1.606zm-4.351 12.525l4.692 1.728.007-.019.007-.02-4.706-1.689zm-2.637 7.778l-4.807-1.374-.193.674v.7h5zm-.132 2.241l-4.472-2.236-3.618 7.236h8.09v-5zm31.641 0v5h6.247l-1.368-6.095-4.879 1.095zm-3.164-13.052l-4.862 1.167.011.046.012.046 4.839-1.259zm-93.746 73.032a170.808 170.808 0 003.669-7.878l-9.162-4.008a160.47 160.47 0 01-3.451 7.414l8.944 4.472zm3.691-7.929a109.639 109.639 0 003.592-9.808l-9.535-3.011a99.71 99.71 0 01-3.263 8.913l9.206 3.906zm3.452-9.42l3.56-8.702-9.256-3.786-3.559 8.701 9.255 3.787zm3.092-13.368a236.122 236.122 0 01-4.775-7.486l-8.526 5.226a243.931 243.931 0 004.981 7.807l8.32-5.547zm-4.68-7.325a107.025 107.025 0 01-4.157-8.187l-9.103 4.138a116.788 116.788 0 004.544 8.952l8.716-4.903zm-4.157-8.187a65.373 65.373 0 01-3.062-8.082l-9.57 2.9a75.274 75.274 0 003.529 9.32l9.103-4.138zm-3.023-7.947c-.686-2.516-1.011-4.885-1.011-7.122h-10c0 3.212.467 6.468 1.363 9.753l9.648-2.631zm-1.011-7.122a4.91 4.91 0 01-1.433 3.471 4.686 4.686 0 01-1.329.936 3.89 3.89 0 01-.763.265c-.001 0 .229-.038.835-.079l-.665-9.978c-.711.048-1.471.119-2.131.251a6.673 6.673 0 00-1.505.479 5.33 5.33 0 00-1.513 1.055 5.09 5.09 0 00-1.496 3.6h10zm-2.402 4.566c1.229-.154 2.8-.278 4.739-.362l-.435-9.991c-2.104.092-3.961.232-5.544.43l1.24 9.923zm4.729-.362c2.033-.084 4.204-.127 6.516-.127v-10c-2.434 0-4.745.045-6.932.136l.416 9.991zm6.694-.13c2.414-.086 4.595-.129 6.546-.129v-10c-2.093 0-4.394.046-6.902.135l.356 9.994zm6.754-.133c2.076-.087 3.713-.128 4.933-.128v-10c-1.416 0-3.207.047-5.35.136l.417 9.992zm5.245-.137l.008-.001h.009l.008-.001.008-.001h.008l.008-.001h.008l.009-.001h.008l.008-.001h.008l.008-.001h.008l.008-.001h.008l.008-.001h.008l.008-.001h.008l.008-.001h.008l.007-.001h.008l.008-.001h.008l.008-.001h.016l.007-.001h.008l.008-.001h.008l.007-.001h.008l.008-.001h.007l.008-.001h.008l.007-.001h.008l.007-.001h.008l.008-.001h.007l.008-.001h.007l.008-.001h.015l.007-.001h.007l.008-.001h.007l.008-.001h.007l.007-.001h.008l.007-.001h.007l.008-.001h.014l.007-.001h.007l.008-.001h.007l.007-.001h.007l.007-.001h.015l.007-.001h.007l.007-.001h.007l.007-.001h.007l.007-.001h.014l.007-.001h.007l.007-.001h.006l.007-.001h.014l.007-.001h.007l.007-.001h.006l.007-.001h.014l.006-.001h.007l.007-.001h.006l.007-.001H197.105l.007-.001h.006l.007-.001H197.138l.007-.001h.006l.007-.001H197.171l.006-.001h.006l.007-.001H197.203l.006-.001h.006l.007-.001h.012l.007-.001h.006l.006-.001H197.266l.006-.001h.006l.006-.001h.012l.007-.001h.012l.006-.001h.006l.006-.001h.012l.006-.001h.012l.006-.001h.006l.006-.001h.011l.006-.001h.012l.006-.001h.011l.006-.001h.006l.006-.001h.011l.006-.001h.011l.006-.001h.011l.006-.001h.011l.005-.001h.011l.006-.001h.005l.006-.001h.011l.005-.001h.011l.005-.001h.011l.005-.001h.011l.005-.001h.011l.005-.001h.015l.006-.001h.01l.005-.001h.01l.005-.001h.01l.005-.001h.01l.005-.001h.01l.005-.001h.015l.004-.001h.01l.005-.001H197.759l.005-.001h.014l.005-.001H197.792l.005-.001H197.811l.004-.001h.01l.004-.001H197.843l.004-.001H197.856l.004-.001H197.874l.004-.001H197.891l.004-.001H197.904l.004-.001H197.921l.004-.001h.012l.004-.001h.012l.005-.001h.012l.004-.001h.011l.004-.001h.012l.004-.001h.011l.004-.001h.015l.004-.001h.011l.003-.001h.011l.004-.001H198.082l.004-.001H198.099l.004-.001h.01l.003-.001h.014l.003-.001H198.146l.003-.001H198.162l.003-.001h.012l.003-.001h.015l.003-.001h.012l.002-.001h.014l.003-.001H198.243l.002-.001h.013l.003-.001H198.274l.002-.001h.015l.002-.001h.014l.002-.001H198.322l.002-.001H198.339l.002-.001h.013l.002-.001H198.371l.001-.001H198.387l.002-.001H198.404l.001-.001H198.419l.001-.001H198.436v-.001H198.452v-.001H198.464l-.311-4.991-.312-4.99h-.002-.001-.001-.001l-.001.001h-.001-.001-.001-.001-.002-.001-.002-.001-.002-.001-.002l-.001.001h-.001-.001-.001H197.803l-.001.001h-.001-.001-.001-.004-.001-.001-.003-.001-.001l-.001.001h-.002-.004-.003-.004-.001l-.002.001h-.003-.005-.003-.003l-.002.001h-.005-.005-.002-.003l-.002.001h-.002-.002-.002-.007l-.002.001h-.014l-.002.001h-.007-.002-.006l-.002.001h-.003H197.678h-.002l-.002.001h-.01-.004l-.003.001h-.005-.005-.002l-.003.001h-.012l-.003.001h-.013l-.003.001H197.597l-.003.001h-.003-.011l-.003.001h-.012l-.003.001h-.012l-.003.001h-.015l-.004.001h-.012l-.004.001H197.503l-.004.001H197.486l-.004.001H197.469l-.004.001h-.01l-.004.001h-.014l-.004.001h-.011l-.003.001h-.015l-.004.001h-.011l-.004.001h-.012l-.004.001h-.011l-.004.001h-.012l-.004.001h-.012l-.004.001H197.309l-.004.001h-.012l-.005.001h-.012l-.005.001h-.008l-.005.001H197.245l-.004.001H197.228l-.005.001H197.214l-.004.001H197.196l-.004.001H197.183l-.005.001H197.164l-.005.001H197.15l-.005.001H197.136l-.005.001h-.014l-.005.001h-.01l-.005.001h-.01l-.005.001h-.01l-.005.001h-.015l-.005.001h-.01l-.005.001h-.01l-.005.001h-.011l-.005.001h-.01l-.005.001h-.011l-.005.001h-.011l-.005.001h-.011l-.005.001h-.011l-.006.001h-.01l-.006.001h-.011l-.006.001h-.011l-.005.001h-.011l-.006.001h-.011l-.006.001h-.006l-.005.001h-.012l-.006.001h-.011l-.006.001h-.012l-.005.001h-.006l-.006.001h-.012l-.006.001h-.012l-.006.001h-.006l-.006.001h-.012l-.006.001h-.012l-.006.001h-.006l-.006.001H196.654l-.006.001h-.012l-.007.001h-.006l-.006.001H196.604l-.006.001h-.006l-.007.001H196.572l-.006.001h-.006l-.007.001H196.54l-.006.001h-.007l-.006.001H196.508l-.007.001h-.006l-.007.001h-.007l-.006.001H196.462l-.007.001h-.007l-.007.001H196.428l-.007.001h-.006l-.007.001h-.007l-.007.001h-.014l-.006.001h-.007l-.007.001h-.007l-.007.001h-.014l-.007.001h-.007l-.007.001h-.007l-.007.001h-.007l-.007.001h-.014l-.007.001h-.008l-.007.001h-.007l-.007.001h-.007l-.008.001h-.014l-.007.001h-.008l-.007.001h-.007l-.007.001h-.008l-.007.001h-.008l-.007.001h-.007l-.008.001h-.015l-.007.001h-.008l-.007.001h-.008l-.007.001h-.008l-.007.001h-.008l-.008.001h-.007l-.008.001h-.007l-.008.001h-.008l-.008.001h-.007l-.008.001h-.015l-.008.001h-.008l-.008.001h-.008l-.008.001h-.007l-.008.001h-.008l-.008.001h-.008l-.008.001h-.008l-.008.001h-.008l-.008.001h-.008l-.008.001h-.008l-.008.001h-.008l-.008.001h-.008l-.009.001h-.008a.02.02 0 01-.008.001h-.008l-.008.001h-.008l-.009.001.624 9.981zm6.466-3.333a772.913 772.913 0 015.895-14.932l-9.261-3.773a782.405 782.405 0 00-5.971 15.126l9.337 3.579zm5.895-14.932c1.937-4.756 3.875-9.556 5.812-14.4l-9.284-3.714c-1.93 4.824-3.86 9.605-5.789 14.341l9.261 3.773zm5.812-14.4c1.942-4.853 3.883-9.794 5.823-14.822l-9.329-3.601a1312.58 1312.58 0 01-5.778 14.709l9.284 3.714zm5.834-14.849a432.922 432.922 0 005.869-16.54l-9.487-3.162a420.362 420.362 0 01-5.732 16.155l9.35 3.547zm5.861-16.517c3.662-10.81 7.221-20.268 10.676-28.387l-9.202-3.915c-3.576 8.405-7.224 18.107-10.945 29.094l9.471 3.208zm10.676-28.387a4527.227 4527.227 0 019.877-23.046l-9.18-3.966c-3.08 7.129-6.38 14.828-9.899 23.097l9.202 3.915zm9.929-23.172c.031-.077.113-.244.393-.493l-6.643-7.474c-1.302 1.157-2.362 2.572-3.035 4.253l9.285 3.714zm.416-.513a9.61 9.61 0 011.818-1.305l-4.788-8.779a19.535 19.535 0 00-3.719 2.651l6.689 7.433zm1.818-1.305a21.04 21.04 0 012.232-1.065l-3.714-9.285c-1.09.436-2.193.964-3.306 1.571l4.788 8.779zm2.083-1.009a91.884 91.884 0 012.114-.746l-3.162-9.487c-.592.197-1.389.479-2.369.835l3.417 9.398zm1.746-.639c.518-.13 2.014-.582 4.212-1.258l-2.94-9.558a490.5 490.5 0 01-2.669.814c-.322.096-.574.171-.761.225l-.268.076 2.426 9.701zm4.162-1.243a278.827 278.827 0 017.902-2.202l-2.559-9.667a292.527 292.527 0 00-8.183 2.281l2.84 9.588zm7.902-2.202a177.884 177.884 0 018.591-2.052l-2.075-9.782c-2.985.633-6.01 1.356-9.075 2.167l2.559 9.667zm8.561-2.046c2.861-.588 4.851-.82 6.111-.82v-10c-2.255 0-5.011.384-8.127 1.026l2.016 9.794zm6.111-.82H282v-10h-2.373v10zm2.373 0c.529 0 .993.121 1.475.396l4.961-8.682a12.835 12.835 0 00-6.436-1.714v10zm1.841.586a1.09 1.09 0 01-.24-.155.747.747 0 01-.114-.12c-.007-.01.113.162.229.675l9.752-2.216c-.649-2.855-2.214-5.76-5.398-7.246l-4.229 9.062zm.093 1.11c4.206 10.778 8.678 22.572 13.416 35.381l9.379-3.469c-4.755-12.855-9.248-24.705-13.479-35.547l-9.316 3.635zm13.43 35.419c4.784 12.612 9.448 26.556 13.989 41.839l9.586-2.849c-4.6-15.478-9.34-29.659-14.225-42.536l-9.35 3.546zm13.99 41.842c2.47 8.292 4.897 16.149 7.283 23.569l9.52-3.06a1140.78 1140.78 0 01-7.219-23.364l-9.584 2.855zm7.283 23.569c2.38 7.405 4.76 14.635 7.141 21.69l9.475-3.197a1568.054 1568.054 0 01-7.096-21.553l-9.52 3.06zm7.141 21.69l.014.042.014.041.014.041.014.041.014.041.014.042.014.041.014.041.014.041.013.041.014.042.014.041.014.041.014.041.014.041.014.042.014.041.014.041.014.041.013.041.014.042.014.041.014.041.014.041.014.041.014.042.014.041.014.041.014.041a.493.493 0 00.014.041l.013.042.014.041.014.041.014.041.014.041.014.042.014.041.014.041.014.041a.493.493 0 00.014.041l.013.042.014.041.014.041.014.041.014.041.014.042.014.041.014.041.014.041a.493.493 0 00.014.041.689.689 0 00.014.042l.013.041.014.041.014.041.014.041.014.042.014.041.014.041.014.041a.493.493 0 00.014.041.493.493 0 00.014.041l.013.042.014.041.014.041.014.041.014.041.014.042.014.041.014.041a.493.493 0 00.014.041.493.493 0 00.014.041.689.689 0 00.014.042l.013.041.014.041a1.004 1.004 0 01.028.082l.014.042.014.041.014.041.014.041a.493.493 0 00.014.041.689.689 0 00.014.042l.013.041.014.041.014.041.014.041.014.042.014.041.014.041.014.041a.493.493 0 00.014.041l.014.042.014.041.013.041.014.041a1.004 1.004 0 01.028.083l.014.041.014.041.014.041a.493.493 0 00.014.041.689.689 0 00.028.083l.013.041.014.041.014.041.014.042.014.041.014.041.014.041.014.041a.689.689 0 00.014.042l.014.041.014.041.013.041a1.004 1.004 0 01.028.083l.014.041.014.041.014.041.014.041.014.042.014.041.014.041.013.041a1.004 1.004 0 01.028.083l.014.041.014.041.014.041.014.041.014.042.014.041.014.041.014.041.013.041.014.042.014.041.014.041.014.041.014.041.014.042.014.041.014.041.014.041.013.041.014.042.014.041.014.041.014.041.014.041.014.042.014.041.014.041.014.041a.493.493 0 00.014.041l.013.042.014.041.014.041.014.041.014.041.014.042.014.041.014.041.014.041a.493.493 0 00.014.041l.013.042.014.041.014.041.014.041.014.041.014.042.014.041.014.041.014.041a.493.493 0 00.014.041.689.689 0 00.014.042l.013.041.014.041.014.041.014.041.014.042.014.041.014.041.014.041a.493.493 0 00.014.041.689.689 0 00.014.042l.013.041.014.041.014.041.014.041.014.042.014.041.014.041.014.041a.493.493 0 00.014.041l.014.042.014.041.013.041.014.041.014.041.014.042.014.041.014.041.014.041a.493.493 0 00.014.041l.014.042.014.041.013.041.014.041.014.041.014.042.014.041.014.041.014.041.014.041a.689.689 0 00.028.083l.014.041.013.041.014.041.014.041.014.042.014.041.014.041.014.041a.493.493 0 00.014.041.689.689 0 00.014.042l.014.041.013.041a1.004 1.004 0 01.028.082l.014.042.014.041.014.041.014.041.014.041.014.042.014.041.014.041.013.041a1.004 1.004 0 01.028.083l.014.041.014.041.014.041.014.041.014.042.014.041.014.041.013.041a1.004 1.004 0 01.028.083l.014.041.014.041.014.041.014.041.014.042.014.041.014.041a.493.493 0 00.014.041l.013.041.014.042.014.041.014.041.014.041.014.041.014.042.014.041.014.041.014.041.013.041.014.042.014.041.014.041.014.041.014.041.014.042.014.041.014.041.014.041.013.041.014.042.014.041.014.041.014.041.014.041.014.042.014.041.014.041.014.041a.493.493 0 00.014.041l.013.042.014.041.014.041.014.041.014.041.014.042.014.041.014.041.014.041a.493.493 0 00.014.041l.013.042.014.041.014.041.014.041.014.041.014.042.014.041.014.041.014.041a.493.493 0 00.014.041l.014.042.013.041.014.041.014.041.014.041.014.042.014.041.014.041.014.041a.493.493 0 00.014.041l.014.042.013.041.014.041.014.041.014.041.014.042.014.041.014.041.014.041a.493.493 0 00.014.041.689.689 0 00.028.083l.013.041.014.041.014.041.014.042.014.041.014.041.014.041.014.041a.689.689 0 00.028.083l.013.041.014.041a1.004 1.004 0 01.028.083l.014.041.014.041.014.041.014.041a.689.689 0 00.014.042l.014.041.014.041.013.041a1.004 1.004 0 01.028.083l.014.041.014.041.014.041.014.041.014.042.014.041.014.041.013.041a1.004 1.004 0 01.028.083l.014.041.014.041.014.041.014.041.014.042.014.041.014.041.014.041.013.041a1.004 1.004 0 01.028.083l.014.041.014.041.014.041.014.041a.689.689 0 00.028.083l.014.041.013.041.014.041.014.042.014.041.014.041.014.041.014.041.014.042.014.041.014.041a.493.493 0 00.014.041l.013.041.014.042.014.041.014.041.014.041.014.041.014.042.014.041.014.041a.493.493 0 00.014.041l.013.041.014.042.014.041.014.041.014.041.014.041.014.042.014.041.014.041a.493.493 0 00.014.041.493.493 0 00.014.041l.013.042.014.041.014.041.014.041.014.041.014.042.014.041.014.041a.493.493 0 00.014.041.493.493 0 00.014.041l.013.042.014.041.014.041.014.041.014.041.014.042.014.041.014.041.014.041a.493.493 0 00.014.041l.014.042.013.041.014.041.014.041.014.041.014.042.014.041.014.041.014.041a.493.493 0 00.014.041.689.689 0 00.014.042l.013.041.014.041.014.041.014.041.014.042.014.041.014.041.014.041a.493.493 0 00.014.041.689.689 0 00.028.083l.013.041.014.041.014.041.014.042.014.041.014.041.014.041a.493.493 0 00.014.041.689.689 0 00.014.042l.014.041.013.041.014.041.014.041.014.042.014.041.014.041.014.041.014.041.014.042.014.041.014.041.013.041a1.004 1.004 0 01.028.083l.014.041.014.041.014.041.014.041.014.042.014.041.014.041.013.041a1.004 1.004 0 01.028.083l.014.041.014.041.014.041.014.041.014.042a1.004 1.004 0 00.028.082l.014.041.013.041.014.042.014.041.014.041.014.041.014.041.014.042.014.041.014.041.014.041 9.474-3.198-.013-.041-.014-.041a1.004 1.004 0 01-.014-.041l-.014-.041-.014-.042-.014-.041-.014-.041a.493.493 0 00-.014-.041.493.493 0 00-.014-.041.689.689 0 00-.014-.042l-.013-.041-.014-.041a1.004 1.004 0 01-.014-.041l-.014-.041-.014-.042-.014-.041-.014-.041-.014-.041a.493.493 0 00-.014-.041.689.689 0 00-.014-.042l-.014-.041-.013-.041-.014-.041-.014-.041-.014-.042-.014-.041-.014-.041-.014-.041a.493.493 0 00-.014-.041.689.689 0 00-.028-.083l-.013-.041-.014-.041a1.004 1.004 0 01-.028-.083l-.014-.041-.014-.041-.014-.041-.014-.041a.689.689 0 00-.014-.042l-.014-.041-.014-.041-.013-.041-.014-.041a.689.689 0 01-.014-.042.493.493 0 01-.014-.041l-.014-.041-.014-.041-.014-.041-.014-.042-.014-.041-.014-.041-.013-.041a1.004 1.004 0 01-.014-.041l-.014-.042a.493.493 0 01-.014-.041l-.014-.041-.014-.041-.014-.041-.014-.042-.014-.041-.014-.041-.014-.041-.013-.041-.014-.042a.493.493 0 01-.014-.041l-.014-.041-.014-.041-.014-.041-.014-.042-.014-.041-.014-.041-.014-.041-.013-.041-.014-.042a.493.493 0 01-.014-.041.493.493 0 01-.014-.041l-.014-.041-.014-.041-.014-.042-.014-.041a1.004 1.004 0 00-.014-.041l-.014-.041a.493.493 0 00-.014-.041l-.013-.042a.493.493 0 01-.014-.041.493.493 0 01-.014-.041l-.014-.041-.014-.041-.014-.042-.014-.041-.014-.041-.014-.041a.493.493 0 00-.014-.041l-.013-.042a.493.493 0 01-.014-.041.493.493 0 01-.014-.041l-.014-.041-.014-.041-.014-.042-.014-.041-.014-.041-.014-.041a.493.493 0 00-.014-.041l-.014-.042-.013-.041a.493.493 0 01-.014-.041l-.014-.041-.014-.041-.014-.042-.014-.041-.014-.041-.014-.041a.493.493 0 00-.014-.041l-.014-.042-.013-.041a.493.493 0 01-.014-.041l-.014-.041a1.004 1.004 0 01-.014-.041l-.014-.042-.014-.041-.014-.041-.014-.041a.493.493 0 00-.014-.041.689.689 0 00-.014-.042l-.014-.041-.013-.041-.014-.041-.014-.041-.014-.041-.014-.042-.014-.041-.014-.041a.493.493 0 00-.014-.041.493.493 0 00-.014-.041l-.014-.042-.013-.041-.014-.041-.014-.041-.014-.041-.014-.042-.014-.041-.014-.041-.014-.041a.493.493 0 00-.014-.041.689.689 0 00-.028-.083l-.013-.041a1.004 1.004 0 01-.028-.082l-.014-.042-.014-.041-.014-.041-.014-.041a.493.493 0 00-.014-.041.689.689 0 00-.014-.042l-.014-.041-.013-.041-.014-.041-.014-.041a.689.689 0 01-.014-.042l-.014-.041-.014-.041-.014-.041-.014-.041-.014-.042-.014-.041-.013-.041-.014-.041a1.004 1.004 0 01-.014-.041l-.014-.042-.014-.041-.014-.041-.014-.041-.014-.041a.689.689 0 00-.014-.042l-.014-.041-.014-.041-.013-.041-.014-.041-.014-.042a.493.493 0 01-.014-.041l-.014-.041-.014-.041-.014-.041-.014-.042-.014-.041-.014-.041-.013-.041-.014-.041-.014-.042a.493.493 0 01-.014-.041l-.014-.041-.014-.041-.014-.041-.014-.042a1.004 1.004 0 00-.014-.041l-.014-.041-.014-.041-.013-.041a.689.689 0 01-.014-.042.493.493 0 01-.014-.041l-.014-.041-.014-.041-.014-.041-.014-.042-.014-.041-.014-.041-.014-.041-.013-.041-.014-.042a.493.493 0 01-.014-.041l-.014-.041-.014-.041-.014-.041-.014-.042-.014-.041-.014-.041-.014-.041a.493.493 0 00-.014-.041l-.013-.042a.493.493 0 01-.014-.041l-.014-.041-.014-.041-.014-.041-.014-.042-.014-.041-.014-.041-.014-.041a.493.493 0 00-.014-.041l-.013-.042a.493.493 0 01-.014-.041.493.493 0 01-.014-.041l-.014-.041-.014-.041-.014-.042-.014-.041-.014-.041-.014-.041a.493.493 0 00-.014-.041.689.689 0 00-.014-.042l-.013-.041a.493.493 0 01-.014-.041l-.014-.041-.014-.041-.014-.042-.014-.041-.014-.041-.014-.041a.493.493 0 00-.014-.041l-.014-.042-.013-.041a.493.493 0 01-.014-.041l-.014-.041-.014-.041-.014-.042-.014-.041-.014-.041-.014-.041a.493.493 0 00-.014-.041.689.689 0 00-.028-.083l-.013-.041-.014-.041a1.004 1.004 0 01-.028-.083l-.014-.041-.014-.041-.014-.041a.493.493 0 00-.014-.041.689.689 0 00-.028-.083l-.013-.041-.014-.041-.014-.041-.014-.042-.014-.041-.014-.041-.014-.041-.014-.041a.689.689 0 00-.014-.042l-.014-.041-.014-.041-.013-.041-.014-.041a1.004 1.004 0 01-.014-.041l-.014-.042-.014-.041-.014-.041-.014-.041a.493.493 0 00-.014-.041.689.689 0 00-.014-.042l-.014-.041-.013-.041a1.004 1.004 0 01-.014-.041l-.014-.041-.014-.042-.014-.041-.014-.041-.014-.041-.014-.041-.014-.042-.014-.041-.014-.041-.013-.041-.014-.041-.014-.042a.493.493 0 01-.014-.041l-.014-.041-.014-.041-.014-.041a.689.689 0 00-.028-.083l-.014-.041-.013-.041a1.004 1.004 0 01-.028-.083.493.493 0 01-.014-.041l-.014-.041-.014-.041-.014-.041-.014-.042a1.004 1.004 0 00-.014-.041l-.014-.041a.493.493 0 00-.014-.041l-.013-.041-.014-.042a.493.493 0 01-.014-.041l-.014-.041-.014-.041-.014-.041-.014-.042-.014-.041-.014-.041a.493.493 0 00-.014-.041l-.013-.041-.014-.042a.493.493 0 01-.014-.041l-.014-.041-.014-.041-.014-.041-.014-.042-.014-.041-.014-.041-.014-.041a.493.493 0 00-.014-.041l-.013-.042a.493.493 0 01-.014-.041l-.014-.041-.014-.041-.014-.041-.014-.042-.014-.041-.014-.041-.014-.041a.493.493 0 00-.014-.041l-.013-.042a.493.493 0 01-.014-.041l-.014-.041-.014-.041-.014-.041-.014-.042-.014-.041-.014-.041-.014-.041a.493.493 0 00-.014-.041l-.014-.042-.013-.041-.014-.041-.014-.041-.014-.041-.014-.042-.014-.041-.014-.041-.014-.041a.493.493 0 00-.014-.041.689.689 0 00-.014-.042l-.013-.041-.014-.041-.014-.041a1.004 1.004 0 01-.014-.041l-.014-.042-.014-.041-.014-.041-.014-.041a.493.493 0 00-.014-.041.689.689 0 00-.028-.083l-.013-.041-.014-.041-.014-.041-.014-.042-.014-.041-.014-.041-.014-.041a.493.493 0 00-.014-.041.689.689 0 00-.014-.042l-.014-.041-.013-.041-.014-.041-.014-.041a.689.689 0 01-.014-.042l-.014-.041-.014-.041-.014-.041-.014-.041-.014-.042-.014-.041-.013-.041-.014-.041a1.004 1.004 0 01-.014-.041l-.014-.042-.014-.041-.014-.041-.014-.041-.014-.041-.014-.042-.014-.041-.014-.041-.013-.041-.014-.041-.014-.042a.493.493 0 01-.014-.041l-.014-.041-.014-.041-.014-.041-.014-.042a1.004 1.004 0 00-.014-.041l-.014-.041-.013-.041a1.004 1.004 0 01-.028-.083.493.493 0 01-.014-.041l-.014-.041-.014-.041-.014-.041-.014-.042-.014-.041a1.004 1.004 0 00-.014-.041l-.014-.041-.013-.041-.014-.041-.014-.042a.493.493 0 01-.014-.041l-.014-.041-.014-.041-.014-.041-.014-.042a1.004 1.004 0 00-.014-.041l-.014-.041-.013-.041-.014-.041-.014-.042a.493.493 0 01-.014-.041l-.014-.041-.014-.041-.014-.041-.014-.042-.014-.041-.014-.041a.493.493 0 00-.014-.041l-.013-.041-.014-.042a.493.493 0 01-.014-.041l-.014-.041-.014-.041-.014-.041-.014-.042-.014-.041-.014-.041a.493.493 0 00-.014-.041l-.013-.041-.014-.042a.493.493 0 01-.014-.041l-.014-.041-.014-.041-.014-.041-.014-.042-.014-.041-.014-.041a.493.493 0 00-.014-.041.493.493 0 00-.014-.041l-.013-.042a.493.493 0 01-.014-.041l-.014-.041-.014-.041-.014-.041-.014-.042-.014-.041-.014-.041a.493.493 0 00-.014-.041.493.493 0 00-.014-.041l-.013-.042a.493.493 0 01-.014-.041l-.014-.041-.014-.041-.014-.041-.014-.042-.014-.041-.014-.041-.014-.041a.493.493 0 00-.014-.041.689.689 0 00-.014-.042l-.013-.041-.014-.041-.014-.041-.014-.041-.014-.042-.014-.041-.014-.041-.014-.041a.493.493 0 00-.014-.041l-9.475 3.197zm7.138 21.147a2893.2 2893.2 0 017.501 21.716l9.465-3.229a2914.012 2914.012 0 00-7.528-21.791l-9.438 3.304zm7.383 21.314c.821 3.284 1.688 6.077 2.628 8.271l9.191-3.939c-.641-1.497-1.357-3.714-2.118-6.758l-9.701 2.426zm2.709 8.451c.928 1.949 1.836 3.638 2.728 4.975l8.32-5.547c-.515-.773-1.189-1.984-2.019-3.727l-9.029 4.299zm2.728 4.975c.734 1.101 1.421 2.067 2.033 2.8l7.682-6.401c-.268-.322-.723-.938-1.395-1.946l-8.32 5.547zm2.338 3.135a2.661 2.661 0 01-.522-.774 3.197 3.197 0 01-.283-1.311h10c0-2.089-.927-3.789-2.124-4.986l-7.071 7.071zm-.805-2.085c0-1.274.524-2.204.923-2.708.369-.466.715-.687.781-.729.122-.077-.026.033-.715.251l3.012 9.536c.981-.31 2.085-.727 3.043-1.332.644-.407 2.956-1.972 2.956-5.018h-10zm.947-3.173l-28.345 9.229 3.096 9.509 28.345-9.229-3.096-9.509zm-28.552 9.302a520.543 520.543 0 01-6.398 2.35l3.387 9.409a542.6 542.6 0 006.522-2.396l-3.511-9.363zm-6.398 2.35a170.57 170.57 0 01-6.019 2.049l3.032 9.529c2.001-.637 4.126-1.36 6.374-2.169l-3.387-9.409zm-6.019 2.049c-1.848.588-3.434 1.033-4.771 1.348l2.291 9.734c1.651-.389 3.492-.91 5.512-1.553l-3.032-9.529zm-5.117 1.442c-.616.193-1.069.313-1.384.381a3.885 3.885 0 01-.291.055c-.049.007.004-.004.134-.004v10c1.457 0 3.12-.448 4.524-.887l-2.983-9.545zm-1.541.432h-.791v10h.791v-10zm-.791 0c-.096 0 .112-.017.47.144.405.182.789.499 1.054.896l-8.321 5.547c1.724 2.585 4.446 3.413 6.797 3.413v-10zm1.363.813c-.21-.28-.22-.387-.204-.322l-9.701 2.426c.368 1.471 1.061 2.771 1.905 3.896l8-6zm-.269-.559c-.906-2.991-1.824-5.702-2.755-8.123l-9.334 3.59c.827 2.148 1.667 4.623 2.519 7.433l9.57-2.9zm-2.733-8.065a597.021 597.021 0 00-2.659-7.045l-9.333 3.589a599.766 599.766 0 012.614 6.929l9.378-3.473zm-2.582-6.832l-.005-.014-.005-.013-.004-.014-.005-.014a.058.058 0 00-.005-.014l-.004-.014-.005-.014-.004-.014-.005-.014-.005-.014-.004-.014-.005-.014-.005-.014-.004-.014-.005-.014-.005-.014-.004-.013-.005-.014a.058.058 0 00-.005-.014l-.004-.014-.005-.014a.058.058 0 00-.005-.014l-.004-.014-.005-.014a.058.058 0 00-.005-.014l-.004-.014-.005-.014a.058.058 0 00-.005-.014l-.004-.014-.005-.014-.004-.014-.005-.014-.005-.014-.004-.014a.121.121 0 01-.005-.014l-.005-.014a.058.058 0 00-.005-.014l-.004-.014-.005-.014a.058.058 0 00-.005-.014l-.004-.014-.005-.014a.058.058 0 00-.005-.014l-.004-.014-.005-.014a.058.058 0 00-.005-.014l-.004-.015-.005-.014-.005-.014-.004-.014-.005-.014-.005-.014-.004-.014-.005-.014-.005-.014-.004-.014-.005-.014-.005-.014a.058.058 0 00-.005-.014l-.004-.014-.005-.014a.088.088 0 00-.005-.015l-.004-.014-.005-.014-.005-.014-.004-.014-.005-.014-.005-.014a.058.058 0 00-.005-.014l-.004-.014-.005-.015-.005-.014-.004-.014-.005-.014-.005-.014-.004-.014-.005-.014-.005-.014a.088.088 0 00-.005-.015l-.004-.014-.005-.014-.005-.014-.004-.014-.005-.014-.005-.014-.005-.015-.004-.014-.005-.014-.005-.014a.058.058 0 00-.005-.014l-.004-.014-.005-.015-.005-.014-.004-.014-.005-.014-.005-.014a.088.088 0 00-.005-.015l-.004-.014-.005-.014-.005-.014a.058.058 0 00-.005-.014l-.004-.015-.005-.014-.005-.014a.058.058 0 00-.005-.014l-.004-.015-.005-.014-.005-.014-.005-.014-.004-.014-.005-.015-.005-.014-.004-.014-.005-.014-.005-.015-.005-.014-.004-.014-.005-.014-.005-.015-.005-.014-.005-.014-.004-.014-.005-.015-.005-.014a.058.058 0 00-.005-.014l-.004-.015-.005-.014-.005-.014a.058.058 0 00-.005-.014l-.004-.015-.005-.014-.005-.014-.005-.015-.004-.014-.005-.014-.005-.015-.005-.014-.005-.014-.004-.015-.005-.014-.005-.014a.088.088 0 00-.005-.015l-.004-.014-.005-.014-.005-.015-.005-.014-.005-.014-.004-.015-.005-.014-.005-.014a.088.088 0 00-.005-.015l-.004-.014a.121.121 0 01-.005-.014l-.005-.015-.005-.014a.088.088 0 00-.005-.015l-.004-.014-.005-.014-.005-.015-.005-.014a.058.058 0 00-.005-.014l-.004-.015-.005-.014-.005-.015-.005-.014a.058.058 0 00-.005-.014l-.004-.015-.005-.014-.005-.015-.005-.014a.058.058 0 00-.005-.014l-.004-.015a.121.121 0 01-.005-.014l-.005-.015-.005-.014a.088.088 0 00-.005-.015l-.004-.014a.121.121 0 01-.005-.014l-.005-.015-.005-.014-.005-.015-.005-.014-.004-.015-.005-.014-.005-.015-.005-.014a.088.088 0 00-.005-.015l-.004-.014a.088.088 0 01-.005-.015.058.058 0 01-.005-.014l-.005-.014-.005-.015a.058.058 0 00-.005-.014l-.004-.015-.005-.014-.005-.015-.005-.014-.005-.015a.058.058 0 00-.005-.014l-.004-.015-.005-.014-.005-.015-.005-.014-.005-.015a.088.088 0 00-.005-.015l-.004-.014a.088.088 0 01-.005-.015.058.058 0 01-.005-.014l-.005-.015-.005-.014-.005-.015-.005-.014-.004-.015-.005-.014-.005-.015-.005-.014-.005-.015a.088.088 0 00-.005-.015l-.004-.014-.005-.015-.005-.014-.005-.015-.005-.014-.005-.015a.088.088 0 00-.005-.015l-.004-.014-.005-.015-.005-.014-.005-.015-.005-.015-.005-.014a.088.088 0 00-.005-.015l-.005-.014-.004-.015-.005-.015a.058.058 0 01-.005-.014l-.005-.015-.005-.014-.005-.015a.088.088 0 00-.005-.015l-.005-.014-.004-.015a.088.088 0 01-.005-.015.058.058 0 01-.005-.014l-.005-.015-.005-.015-.005-.014a.088.088 0 00-.005-.015.058.058 0 00-.005-.014l-.004-.015-.005-.015-.005-.014-.005-.015-.005-.015-.005-.014-.005-.015a.088.088 0 00-.005-.015.058.058 0 00-.005-.014l-.004-.015a.088.088 0 01-.005-.015l-.005-.015a.058.058 0 01-.005-.014l-.005-.015-.005-.015-.005-.014-.005-.015a.088.088 0 00-.005-.015.058.058 0 00-.005-.014l-.004-.015a.088.088 0 01-.005-.015.088.088 0 01-.005-.015l-.005-.014-.005-.015-.005-.015-.005-.015-.005-.014-.005-.015-.005-.015a.058.058 0 00-.005-.014.088.088 0 00-.005-.015l-.004-.015-.005-.015a.088.088 0 01-.005-.015.058.058 0 01-.005-.014l-.005-.015-.005-.015-.005-.015-.005-.014-.005-.015-.005-.015a.088.088 0 00-.005-.015.058.058 0 00-.005-.014.088.088 0 00-.005-.015l-.004-.015-.005-.015-.005-.015-.005-.014a.088.088 0 01-.005-.015l-.005-.015-.005-.015-.005-.015-.005-.014-.005-.015-.005-.015a.088.088 0 00-.005-.015.088.088 0 00-.005-.015.088.088 0 00-.005-.015l-.005-.014a.088.088 0 00-.005-.015l-.004-.015a.088.088 0 01-.005-.015.088.088 0 01-.005-.015l-.005-.015a.121.121 0 01-.005-.014l-.005-.015-.005-.015-.005-.015-.005-.015-.005-.015-.005-.015-.005-.015-.005-.014-.005-.015-.005-.015a.088.088 0 00-.005-.015.088.088 0 00-.005-.015.088.088 0 00-.005-.015.088.088 0 00-.005-.015.088.088 0 00-.005-.015.058.058 0 00-.005-.014l-.005-.015-.005-.015a.088.088 0 00-.005-.015l-.004-.015-.005-.015a.088.088 0 01-.005-.015l-.005-.015-.005-.015-.005-.015-.005-.015a.088.088 0 01-.005-.015.088.088 0 01-.005-.015.058.058 0 01-.005-.014l-.005-.015-.005-.015a.088.088 0 01-.005-.015l-.005-.015-.005-.015-.005-.015-.005-.015-.005-.015-.005-.015-.005-.015-.005-.015-.005-.015-.005-.015-.005-.015-.005-.015-.005-.015-.005-.015-.005-.015-.005-.015-.005-.015-.005-.015-.005-.015-.005-.015-.005-.015-.005-.015-.005-.015-.005-.015-.005-.015-.005-.015-.005-.015-.005-.015-.005-.015-.005-.015-.005-.015-.005-.015a.088.088 0 01-.005-.015.088.088 0 01-.005-.015l-.005-.015-.005-.015-.005-.015-.005-.016-.005-.015a.088.088 0 01-.005-.015l-.005-.015-.005-.015-.005-.015-.005-.015a.088.088 0 01-.005-.015.088.088 0 01-.005-.015l-.006-.015-.005-.015a.088.088 0 00-.005-.015.088.088 0 00-.005-.015.075.075 0 00-.005-.016.088.088 0 00-.005-.015.088.088 0 00-.005-.015.088.088 0 00-.005-.015.088.088 0 00-.005-.015.088.088 0 00-.005-.015.088.088 0 00-.005-.015l-.005-.015-.005-.016-.005-.015-.005-.015-.005-.015-.005-.015-.005-.015a.088.088 0 01-.005-.015.088.088 0 01-.005-.015l-.005-.016a.088.088 0 01-.005-.015l-.005-.015-.005-.015-.006-.015-.005-.015a.098.098 0 00-.005-.016.088.088 0 00-.005-.015l-.005-.015a.088.088 0 00-.005-.015.088.088 0 00-.005-.015l-.005-.015-.005-.016-.005-.015-.005-.015-.005-.015-.005-.015a.098.098 0 01-.005-.016.088.088 0 01-.005-.015.088.088 0 01-.005-.015l-.006-.015-.005-.015-.005-.016-.005-.015a.088.088 0 00-.005-.015.088.088 0 00-.005-.015l-.005-.016-.005-.015-.005-.015-.005-.015a.088.088 0 01-.005-.015l-.005-.016-.005-.015-.006-.015a.088.088 0 00-.005-.015.075.075 0 00-.005-.016.088.088 0 00-.005-.015.088.088 0 00-.005-.015l-.005-.016-.005-.015-.005-.015-.005-.015a.098.098 0 01-.005-.016l-.005-.015-.005-.015-.006-.015a.075.075 0 00-.005-.016l-.005-.015-.005-.015-.005-.016-.005-.015-.005-.015a.075.075 0 01-.005-.016.088.088 0 01-.005-.015l-.005-.015-.006-.015-.005-.016a.088.088 0 00-.005-.015l-.005-.015-.005-.016-.005-.015-.005-.015-.005-.016-.005-.015-.006-.015a.075.075 0 00-.005-.016.088.088 0 00-.005-.015l-.005-.015-.005-.016-.005-.015-.005-.016-.005-.015-.006-.015a.098.098 0 00-.005-.016.088.088 0 00-.005-.015.088.088 0 00-.005-.015l-.005-.016-.005-.015-.005-.016-.005-.015-.006-.015a.098.098 0 00-.005-.016.088.088 0 00-.005-.015l-.005-.016-.005-.015-.005-.015a.098.098 0 01-.005-.016l-.005-.015-.006-.016a.088.088 0 00-.005-.015.088.088 0 00-.005-.015l-.005-.016-.005-.015a.098.098 0 01-.005-.016l-.005-.015-.006-.016a.088.088 0 00-.005-.015.088.088 0 00-.005-.015l-.005-.016-.005-.015-9.487 3.162.005.015.005.016.005.015.006.016.005.015.005.016.005.015.005.015.005.016.005.015.006.016.005.015.005.016.005.015.005.015a.098.098 0 01.005.016l.005.015.005.016a1648417893.536 1648417893.536 0 00.016.046l.005.015.005.015.005.016.005.015.006.016.005.015.005.015a.098.098 0 00.005.016l.005.015.005.015.005.016.005.015.005.015a.277.277 0 00.006.016l.005.015.005.016.005.015.005.015.005.016.005.015.005.015.005.015.006.016.005.015.005.015a.075.075 0 00.005.016l.005.015.005.015.005.016.005.015.005.015.005.016.006.015.005.015.005.015a.098.098 0 00.005.016l.005.015.005.015.005.015.005.016.005.015.005.015.005.016.006.015.005.015.005.015.005.016.005.015.005.015.005.015.005.015.005.016.005.015.005.015.005.015.006.016.005.015.005.015.005.015.005.015a.075.075 0 00.005.016l.005.015.005.015.005.015.005.015.005.016.005.015.005.015.005.015.005.015.005.016.006.015.005.015.005.015.005.015.005.015.005.016.005.015.005.015.005.015.005.015.005.015.005.015.005.016.005.015.005.015.005.015.005.015.005.015.005.015.005.015.005.015.005.016a1648417893.536 1648417893.536 0 00.016.045l.005.015.005.015.005.015.005.015.005.015.005.015.005.015a.075.075 0 00.005.016l.005.015.005.015.005.015.005.015.005.015.005.015.005.015.005.015.005.015.005.015.005.015.005.015.005.015.005.015.005.015.005.015.005.015.005.015.005.015.005.015.005.015.005.015.005.015.005.015.005.015.005.015.005.015.005.015.005.015.005.015.005.015.005.015.005.015.005.015.005.015.005.015.005.015.005.015.005.015.005.015.005.015.005.015.005.015.005.015.005.015.005.015.005.015.005.015.005.014.005.015.005.015.005.015.005.015.005.015.005.015.005.015.005.015.005.015.004.015.005.014.005.015.005.015.005.015.005.015.005.015.005.015.005.015.005.015.005.014.005.015.005.015.005.015.005.015.005.015.005.015.005.014.005.015.005.015.005.015.005.015.004.015a.058.058 0 01.005.014l.005.015.005.015.005.015.005.015.005.014.005.015.005.015.005.015.005.015.005.014.005.015.005.015.005.015.005.015.004.014.005.015.005.015.005.015.005.014.005.015.005.015.005.015.005.015a.121.121 0 00.005.014l.005.015.005.015.004.015a.058.058 0 01.005.014l.005.015.005.015.005.014.005.015.005.015.005.015.005.014.005.015.005.015.004.015a.058.058 0 01.005.014l.005.015.005.015.005.014.005.015.005.015.005.014.005.015.005.015.004.014.005.015.005.015.005.014.005.015.005.015.005.014.005.015.005.015.004.014.005.015.005.015.005.014.005.015.005.015.005.014.005.015.005.015.004.014.005.015.005.014.005.015.005.015.005.014.005.015.004.015a.058.058 0 01.005.014l.005.015.005.014.005.015.005.015a.121.121 0 00.005.014l.005.015.004.014.005.015.005.014.005.015.005.015a.121.121 0 00.005.014l.005.015.004.014.005.015.005.014.005.015.005.014.005.015.004.015a.058.058 0 01.005.014l.005.015.005.014.005.015.005.014.005.015.004.014.005.015.005.014.005.015.005.014.005.015.004.014.005.015.005.014.005.015.005.014.005.015.004.014.005.015.005.014.005.015.005.014.005.015.004.014.005.015.005.014.005.015a.121.121 0 00.005.014l.004.014.005.015.005.014.005.015.005.014.005.015.004.014.005.015.005.014.005.014.005.015.004.014.005.015.005.014.005.014.005.015.004.014.005.015.005.014.005.014.005.015.004.014.005.015.005.014.005.014.005.015.004.014.005.015.005.014.005.014.005.015.004.014.005.014.005.015a.121.121 0 00.005.014l.004.014.005.015.005.014.005.014.005.015.004.014.005.014.005.015.005.014.004.014.005.015.005.014.005.014.005.015.004.014.005.014.005.015.005.014.004.014.005.014.005.015a.121.121 0 00.005.014l.004.014.005.015.005.014.005.014.004.014.005.015.005.014.005.014.004.014.005.015.005.014.005.014.004.014.005.015.005.014.005.014.004.014.005.015.005.014.005.014.004.014.005.014.005.015a.121.121 0 00.005.014l.004.014.005.014.005.014.005.015.004.014.005.014.005.014.004.014.005.015.005.014.005.014.004.014.005.014.005.014.005.015.004.014.005.014.005.014.004.014.005.014.005.015.005.014.004.014.005.014.005.014.004.014.005.014.005.015a.121.121 0 00.005.014l.004.014.005.014.005.014.004.014.005.014.005.014.004.014.005.015.005.014a.121.121 0 00.005.014l.004.014.005.014.005.014.004.014.005.014.005.014.004.014.005.014.005.014.004.014.005.015.005.014a.121.121 0 00.005.014l.004.014.005.014.005.014.004.014.005.014.005.014.004.014.005.014.005.014.004.014.005.014.005.014.004.014.005.014.005.014.004.014.005.014.005.014.004.014.005.014.005.014.004.014.005.014.005.014.004.014.005.014.005.014.004.014.005.014.005.014.004.014.005.014a.121.121 0 00.005.014l.004.014.005.014.004.014a.058.058 0 01.005.014l.005.013.004.014.005.014.005.014.004.014.005.014.005.014.004.014.005.014.005.014.004.014.005.014 9.487-3.163zm-2.459-7.37c-.746-2.484-1.506-5.476-2.279-8.996l-9.767 2.144c.809 3.688 1.63 6.936 2.467 9.726l9.579-2.874zm-2.52-9.78c-1.021-2.552-3.332-3.548-4.512-3.942l-3.162 9.487c.086.029-.103-.019-.404-.238a3.646 3.646 0 01-1.207-1.594l9.285-3.713zm-4.062-3.767c-1.306-.581-2.727-.942-4.171-1.164l-1.521 9.884c.842.129 1.354.295 1.63.418l4.062-9.138zm-4.109-1.154a25.897 25.897 0 00-4.25-.332v10c.995 0 1.86.071 2.606.196l1.644-9.864zm-3.894-.319a53.294 53.294 0 00-3.784-.145v10c.918 0 1.941.039 3.072.119l.712-9.974zm-3.784-.145c-3.374 0-6.175.044-8.382.136l.417 9.992c2.012-.084 4.66-.128 7.965-.128v-10zm-8.174.132c-2.09 0-3.987.045-5.682.14l.555 9.984a94.145 94.145 0 015.127-.124v-10zm-5.405.132c-1.674 0-3.31.046-4.908.14l.588 9.983a73.452 73.452 0 014.32-.123v-10zm-4.614.132H251.282v10H256.556v-10zm-5.274 0H243.372v10H251.282v-10zm-7.743.003c-2.628-.088-5.034-.176-7.218-.263l-.4 9.992c2.211.089 4.639.177 7.285.265l.333-9.994zm-7.242-.264l-7.515-.264-.351 9.994 7.515.264.351-9.994zm-12.393 3.035a420.646 420.646 0 01-6.775 17.589l9.244 3.815a430.303 430.303 0 006.936-18.007l-9.405-3.397zm-6.775 17.589a626.924 626.924 0 01-7.324 17.003l9.127 4.086a636.02 636.02 0 007.441-17.274l-9.244-3.815zm-7.611 17.833c.077-.311.224-.618.426-.88.194-.252.377-.384.456-.433l5.3 8.48c1.63-1.019 2.984-2.6 3.519-4.741l-9.701-2.426zm.626-1.142c.062-.044.186-.119.369-.18.186-.062.38-.092.56-.092v10c1.825 0 3.487-.594 4.883-1.591l-5.812-8.137zm.929-.272c-.166 0-.106-.009.08.017.091.013.348.053.685.165a4.791 4.791 0 011.847 1.151l-7.071 7.071a5.25 5.25 0 002.062 1.265c.435.145.819.213 1.063.248.494.07.972.083 1.334.083v-10zm.774.165c-8.394-3.029-15.345-5.979-20.897-8.838l-4.579 8.889c6.05 3.117 13.425 6.232 22.082 9.355l3.394-9.406zm-20.897-8.838c-5.687-2.93-10.586-5.745-14.717-8.443l-5.468 8.373c4.483 2.927 9.691 5.912 15.606 8.959l4.579-8.889zm66.579-124.079c-2.09 7.752-4.174 14.782-6.25 21.098l9.499 3.123c2.143-6.517 4.278-13.724 6.406-21.617l-9.655-2.604zm-6.263 21.138c-2.009 6.288-3.88 11.858-5.615 16.715l9.417 3.363c1.781-4.987 3.689-10.667 5.723-17.035l-9.525-3.043zm-5.641 16.79a768.923 768.923 0 01-4.322 12.441l9.412 3.379a775.46 775.46 0 004.38-12.607l-9.47-3.213zm-4.308 12.402c-1.244 3.376-2.173 6.107-2.752 8.133l9.615 2.748c.476-1.665 1.304-4.12 2.521-7.424l-9.384-3.457zm-2.945 9.507v1.186h10v-1.186h-10zm0 1.186c0 .146-.007.142.006.039a3.13 3.13 0 01.069-.361c.041-.164.132-.479.321-.859l8.945 4.472a6.244 6.244 0 00.588-2.011c.057-.455.071-.898.071-1.28h-10zm4.868 6.055h31.641v-10H243.24v10zm36.52-6.095a407.501 407.501 0 00-3.204-13.215l-9.678 2.517a397.658 397.658 0 013.125 12.888l9.757-2.19zm-3.181-13.123a681.051 681.051 0 01-3.141-13.742l-9.77 2.131a690.986 690.986 0 003.187 13.944l9.724-2.333zm-3.141-13.742a591.407 591.407 0 01-3.137-15.427l-9.824 1.872a605.65 605.65 0 003.191 15.686l9.77-2.131zm-3.137-15.427c-1.039-5.451-2.038-11.485-2.996-18.105l-9.897 1.432c.976 6.739 1.998 12.922 3.069 18.545l9.824-1.872z" fill="#fff" fill-opacity=".25"/>
  <mask id="a" maskUnits="userSpaceOnUse" x="47.651" y="47.487" width="406" height="417" fill="#000">
    <path fill="#fff" d="M47.651 47.487h406v417h-406z"/>
    <path d="M446.692 187.357a202.513 202.513 0 00-340.879-67.025 202.516 202.516 0 10333.615 221.853l-36.32-17.08a162.38 162.38 0 115.825-124.143l37.759-13.605z"/>
  </mask>
  <path d="M446.692 187.357a202.513 202.513 0 00-340.879-67.025 202.516 202.516 0 10333.615 221.853l-36.32-17.08a162.38 162.38 0 115.825-124.143l37.759-13.605z" fill="url(#paint1_linear)"/>
  <path d="M446.692 187.357a202.513 202.513 0 00-340.879-67.025 202.516 202.516 0 10333.615 221.853l-36.32-17.08a162.38 162.38 0 115.825-124.143l37.759-13.605z" stroke="#fff" stroke-opacity=".25" stroke-width="10" mask="url(#a)"/>
  <defs>
    <linearGradient id="paint0_linear" x1="164.666" y1="256.002" x2="347.666" y2="256.002" gradientUnits="userSpaceOnUse">
      <stop stop-color="#FC00FF"/>
      <stop offset="1" stop-color="#00DBDE"/>
    </linearGradient>
    <linearGradient id="paint1_linear" x1="2.003" y1="68.543" x2="458.681" y2="440.996" gradientUnits="userSpaceOnUse">
      <stop stop-color="#FC00FF"/>
      <stop offset="1" stop-color="#00DBDE"/>
    </linearGradient>
  </defs>
</svg>